<svg width="971" height="223" viewBox="0 0 971 223" fill="none" xmlns="http://www.w3.org/2000/svg">
<path d="M284.146 37.6284H369.979V38.0018L306.63 162.986C349.64 162.892 360.276 157.292 368.673 138.437H369.233L367.927 171.48H282V171.106L346.002 46.2158C302.899 46.3092 292.636 51.8163 283.399 67.9643H282.84L284.146 37.6284Z" fill="#816D4B"/>
<path d="M381.828 171.48V171.106C385.093 167.559 386.586 162.426 386.586 155.052L386.679 98.6736C386.679 90.8329 385 85.5125 380.055 82.2455V81.4988L403.846 74.3115V155.052C403.846 162.426 405.339 167.559 408.604 171.106V171.48H381.828ZM382.481 48.3627C382.481 41.6421 388.266 35.9483 395.17 35.9483C401.794 35.9483 407.578 41.6421 407.578 48.3627C407.578 55.2699 401.794 60.9637 395.17 60.9637C388.266 60.9637 382.481 55.2699 382.481 48.3627Z" fill="#816D4B"/>
<path d="M421.759 171.48V171.106C425.118 167.559 426.611 162.426 426.611 155.052V41.3621C426.611 33.5214 425.025 28.201 419.987 24.934V24.1873L443.777 17V155.052C443.777 162.426 445.363 167.559 448.629 171.106V171.48H421.759ZM444.057 119.862L466.822 98.3002C479.697 86.2592 482.776 79.912 477.924 76.085V75.8983H505.26L505.167 76.1784C497.33 81.2188 489.213 87.4727 482.682 93.6332L460.757 114.262L507.593 171.293L507.499 171.48H486.228L444.057 119.862Z" fill="#816D4B"/>
<path d="M595.105 162.519C617.31 162.519 624.867 160.466 634.57 143.757H634.943L633.917 171.106H554.335V170.733C559.746 165.506 561.332 159.532 561.332 148.518V59.8436C561.332 48.8294 559.746 42.8555 554.335 37.6284V37.2551H586.429V37.6284C580.924 42.8555 579.432 48.8294 579.432 59.8436V162.519H595.105Z" fill="#816D4B"/>
<path d="M639.981 123.876C639.981 95.22 661.067 73.8448 687.843 73.8448C711.074 73.8448 732.252 90.0862 732.346 121.542H658.081C658.268 144.691 670.77 160.186 692.508 160.186C704.357 160.186 716.578 156.545 729.08 138.53H729.453L729.267 147.771C721.43 166.719 705.289 174 689.056 174C658.268 174 639.981 151.225 639.981 123.876ZM658.454 114.075L714.059 114.262C712.193 92.9798 704.077 81.9655 686.91 81.9655C671.423 81.9655 660.507 94.7533 658.454 114.075Z" fill="#816D4B"/>
<path d="M764.72 173.627C752.964 173.627 743.541 165.319 743.541 151.785C743.541 123.409 785.152 120.235 785.432 93.9132C785.525 86.4459 782.26 81.0321 774.516 81.0321C764.813 81.0321 752.311 90.2729 744.101 108.661H743.728V84.2991C750.072 77.9518 761.734 72.9114 774.703 72.9114C791.31 72.9114 802.505 81.3121 802.319 101.287L801.945 155.145C801.945 159.159 803.438 160.559 805.397 160.559C807.637 160.559 810.156 158.785 811.835 154.958L812.021 161.119C810.249 170.36 804.185 172.973 799.146 172.973C790.283 172.973 786.551 165.693 786.831 156.078H786.551C783.193 168.12 774.703 173.627 764.72 173.627ZM761.081 148.518C761.081 160.279 767.239 164.012 772.184 164.012C777.315 164.012 783.006 159.812 785.152 148.611L785.525 107.261C780.674 123.876 761.081 127.423 761.081 148.518Z" fill="#816D4B"/>
<path d="M821.444 171.48V171.106C824.803 167.559 826.296 162.426 826.296 155.052V41.3621C826.296 33.5214 824.71 28.201 819.672 24.934V24.1873L843.463 17V155.052C843.463 162.426 845.049 167.559 848.314 171.106V171.48H821.444ZM843.743 119.862L866.507 98.3002C879.382 86.2592 882.461 79.912 877.609 76.085V75.8983H904.946L904.852 76.1784C897.015 81.2188 888.898 87.4727 882.368 93.6332L860.443 114.262L907.278 171.293L907.185 171.48H885.913L843.743 119.862Z" fill="#816D4B"/>
<path d="M912.129 99.607C912.129 84.4857 924.165 74.2182 941.518 74.2182C952.061 74.2182 962.603 77.1118 968.108 80.4721V105.207H967.735C961.857 88.8728 950.568 81.9655 940.958 81.9655C931.442 81.9655 927.057 88.4061 927.057 95.22C927.057 104.087 933.774 109.315 940.305 113.048L947.209 116.969C958.591 123.409 971 131.063 971 146.651C971 163.546 958.498 173.16 941.145 173.16C929.483 173.16 919.033 169.52 913.249 165.133V138.904H913.622C919.593 157.385 930.602 165.413 941.611 165.413C950.381 165.413 956.352 159.625 956.352 152.532C956.352 143.291 948.235 137.13 942.264 133.583L934.148 128.823C926.497 124.436 912.129 116.408 912.129 99.607Z" fill="#816D4B"/>
<path d="M528.025 48.3627V35.9483C524.983 35.9483 522.159 37.0534 519.951 38.8645L528.025 48.3627Z" fill="#B19463"/>
<path d="M528.025 35.9483V48.3627L536.701 39.6237C534.428 37.3669 531.331 35.9483 528.025 35.9483Z" fill="#DDBA7F"/>
<path fill-rule="evenodd" clip-rule="evenodd" d="M514.683 171.106V171.48H541.46V171.106C538.194 167.559 536.701 162.426 536.701 155.052V74.3115L512.911 81.4988V82.2455C517.855 85.5125 519.535 90.8329 519.535 98.6736L519.441 155.052C519.441 162.426 517.949 167.559 514.683 171.106ZM515.571 46.0291C515.417 46.7875 515.336 47.5679 515.336 48.3627C515.336 55.2699 521.121 60.9637 528.025 60.9637C534.649 60.9637 540.433 55.2699 540.433 48.3627C540.433 44.9966 538.982 41.8882 536.701 39.6237L528.025 48.3627L515.571 46.0291Z" fill="#816D4B"/>
<path d="M528.025 48.3627L519.951 38.8645C517.74 40.6782 516.146 43.2 515.571 46.0291L528.025 48.3627Z" fill="#C1A16B"/>
<path d="M395.17 47.9893V35.5749C392.128 35.5749 389.304 36.68 387.096 38.4911L395.17 47.9893Z" fill="#B19463"/>
<path d="M395.17 35.5749V47.9893L403.846 39.2503C401.573 36.9935 398.476 35.5749 395.17 35.5749Z" fill="#DDBA7F"/>
<path fill-rule="evenodd" clip-rule="evenodd" d="M381.828 170.733V171.106H408.604V170.733C405.339 167.186 403.846 162.052 403.846 154.678V73.9382L380.055 81.1254V81.8722C385 85.1391 386.679 90.4596 386.679 98.3002L386.586 154.678C386.586 162.052 385.093 167.186 381.828 170.733ZM382.716 45.6558C382.562 46.4141 382.481 47.1945 382.481 47.9893C382.481 54.8966 388.266 60.5904 395.17 60.5904C401.794 60.5904 407.578 54.8966 407.578 47.9893C407.578 44.6233 406.127 41.5148 403.846 39.2503L395.17 47.9893L382.716 45.6558Z" fill="#816D4B"/>
<path d="M395.17 47.9893L387.096 38.4911C384.884 40.3049 383.291 42.8267 382.716 45.6558L395.17 47.9893Z" fill="#C1A16B"/>
<path d="M124.527 219.651C178.862 219.651 222.909 175.834 222.909 121.782C222.909 67.7307 178.862 23.9132 124.527 23.9132C70.1919 23.9132 26.1448 67.7307 26.1448 121.782C26.1448 175.834 70.1919 219.651 124.527 219.651Z" fill="black"/>
<path fill-rule="evenodd" clip-rule="evenodd" d="M117.959 151.151C111.514 145.97 109.538 157.243 96.7572 155.974C85.256 154.831 69.047 163.386 66.0948 171.067C57.773 192.718 76.8253 210.468 96.7572 215.417C132.346 224.253 155.651 210.47 154.663 209.139C147.459 199.439 127.456 158.785 117.959 151.151Z" fill="#EAC8B8" stroke="black" stroke-width="8" stroke-miterlimit="1.5" stroke-linecap="round" stroke-linejoin="round"/>
<path fill-rule="evenodd" clip-rule="evenodd" d="M115.135 151.881C120.023 150.193 158.166 178.355 194.137 186.998C195.181 187.249 181.327 213.928 152.939 208.38C139.963 205.844 120.365 175.984 115.135 151.881Z" fill="#F1DFD6" stroke="black" stroke-width="12.5" stroke-miterlimit="1.5" stroke-linecap="round" stroke-linejoin="round"/>
<path fill-rule="evenodd" clip-rule="evenodd" d="M118.196 151.741C118.186 151.738 142.631 183.034 178.194 187.817C188.391 189.188 190.886 195.078 195.688 195.503C214.131 197.139 224.59 168.475 213.488 165.677C199.141 162.06 151.935 167.118 118.196 151.741Z" fill="#F1DFD6" stroke="black" stroke-width="8" stroke-miterlimit="1.5" stroke-linecap="round" stroke-linejoin="round"/>
<path opacity="0.8" fill-rule="evenodd" clip-rule="evenodd" d="M123.348 154.563C120.376 155.509 135.248 173.014 188.746 170.242C209.507 169.166 221.1 179.476 226.96 177.893C241.172 174.053 246.098 124.782 229.264 120.724C212.614 116.711 214.561 122.99 189.195 133.854C160.938 145.955 131.712 151.9 123.348 154.563Z" fill="#F1DFD6" stroke="black" stroke-width="8" stroke-miterlimit="1.5" stroke-linecap="round" stroke-linejoin="round"/>
<path fill-rule="evenodd" clip-rule="evenodd" d="M134.014 150.407C137.453 147.35 208.419 68.121 218.156 66.9464C236.755 64.7028 245.397 82.8419 248.134 96.5677C250.805 109.968 247.095 129.04 239.814 131.07C228.018 134.359 219.05 122.696 198.508 133.153C171.997 146.65 134.014 150.407 134.014 150.407Z" fill="#F1DFD6" stroke="black" stroke-width="8" stroke-miterlimit="1.5" stroke-linecap="round" stroke-linejoin="round"/>
<path fill-rule="evenodd" clip-rule="evenodd" d="M123.216 151.881C123.172 151.924 130.674 152.243 134.014 138.813C137.88 123.271 153.672 43.438 168.176 35.0118C179.892 28.2051 192.68 30.62 199.124 30.7318C219.663 31.0876 243.244 61.1578 228.635 80.263C223.471 87.0166 201.696 88.1389 184.57 104.279C163.289 124.334 135.28 157.141 123.216 151.881Z" fill="#F1DFD6" stroke="black" stroke-width="8" stroke-miterlimit="1.5" stroke-linecap="round" stroke-linejoin="round"/>
<path fill-rule="evenodd" clip-rule="evenodd" d="M117.011 150.202C93.4562 145.32 67.0669 51.2691 114.04 13.6698C129.608 1.20849 156.639 1.20669 173.336 5.85979C186.904 9.64098 200.526 24.5912 198.26 31.7926C192.17 51.1512 167.263 65.8376 157.244 82.9374C143.432 106.513 145.363 127.742 138.089 142.97C134.557 150.365 128.886 152.663 117.011 150.202Z" fill="#EAC8B8" stroke="black" stroke-width="6" stroke-miterlimit="1.5" stroke-linecap="round" stroke-linejoin="round"/>
<path fill-rule="evenodd" clip-rule="evenodd" d="M188.526 16.3099C187.51 15.7256 190.23 21.0257 189.608 30.226C188.826 41.7897 164.325 55.0021 148.74 80.6754C140.972 93.4718 134.692 121.175 133.656 135.108C132.988 144.087 122.796 149.298 122.971 149.343C129.829 151.102 134.778 147.594 136.248 144.266C142.774 129.497 144.1 111.788 149.547 95.4684C158.293 69.2626 188.624 55.3516 196.764 31.8612C198.581 26.6205 190.23 17.29 188.526 16.3099Z" fill="#413028" fill-opacity="0.42"/>
<path fill-rule="evenodd" clip-rule="evenodd" d="M246.302 118.491C238.135 126.673 226.889 116.868 211.199 119.784C204.867 120.961 194.735 128.644 176.355 134.635C157.81 140.681 135.635 149.599 135.748 149.601C145.998 149.712 167.23 152.412 189.138 144.843C196.368 142.345 202.872 136.893 210.823 135.58C219.8 134.097 232.724 137.475 237.203 133.105C238.46 131.878 239.794 130.769 242.058 127.937C245.616 123.485 246.613 118.178 246.302 118.491Z" fill="#413028" fill-opacity="0.48"/>
<path fill-rule="evenodd" clip-rule="evenodd" d="M234.409 167.39C221.322 172.463 215.729 166.696 201.506 164.514C190.172 162.775 177.2 164.69 159.171 163.722C143.825 162.898 124.517 155.458 124.527 155.518C125.324 160.456 136.065 167.257 140.853 169.076C144.78 170.568 150.876 172.486 157.695 173.465C172.786 175.632 187.024 176.374 197.92 174.995C204.649 174.144 213.184 177.706 216.429 176.696C219.616 175.703 223.438 177.598 226.239 176.745C229.919 175.625 232.538 172.012 234.409 167.39Z" fill="#413028" fill-opacity="0.51"/>
<path fill-rule="evenodd" clip-rule="evenodd" d="M114.235 150.006C111.694 154.623 109.821 184.005 142.056 208.575C143.49 209.669 135.778 210.672 124.527 210.855C116.465 210.987 107.738 212.377 89.924 204.168C73.1236 196.425 65.3579 181.756 65.4089 182.616C65.9997 192.576 73.6125 203.554 82.4367 208.081C94.2215 214.126 107.269 218.082 122.487 217.172C136.715 216.322 142.187 213.25 149.141 212.627C155.51 212.056 159.307 208.564 159.649 208.221C159.778 208.093 152.22 205.857 146.698 199.354C135.327 185.965 121.676 165.248 117.291 153.349C116.214 150.427 114.235 150.808 114.235 150.006Z" fill="#413028" fill-opacity="0.47"/>
<path fill-rule="evenodd" clip-rule="evenodd" d="M199.974 194.188C198.503 191.671 188.167 185.672 181.299 184.626C147.123 179.423 118.624 155.518 119.338 155.518C121.016 155.518 128.487 170.417 148.325 181.178C164.555 189.981 170.848 188.64 181.299 192.707C188.765 195.612 198.072 195.139 199.974 194.188Z" fill="#413028" fill-opacity="0.4"/>
<path fill-rule="evenodd" clip-rule="evenodd" d="M229.805 56.4484C229.657 55.0799 234.168 71.0597 213.504 79.4515C193.551 87.5547 182.432 94.2182 167.631 110.922C151.049 129.636 150.252 136.756 130.927 149.813C128.698 151.319 142.973 143.74 149.345 137.222C155.674 130.747 166.158 121.207 184.254 102.705C189.013 97.8383 198.158 92.6898 204.478 89.8563C214.238 85.4807 222.3 84.1797 227.054 80.1795C231.518 76.423 233.884 67.7137 229.805 56.4484Z" fill="#413028" fill-opacity="0.51"/>
<path fill-rule="evenodd" clip-rule="evenodd" d="M45.1453 35.6287C38.8944 21.7684 25.3005 24.5888 20.0642 22.5333C13.1885 19.8345 10.9771 14.8832 8.85361 14.2526C4.12269 12.8476 -3.3486 40.7325 21.5384 54.9046C31.2659 60.4438 47.4762 40.7966 45.1453 35.6287Z" fill="#DEC6BA" stroke="black" stroke-width="8" stroke-miterlimit="1.5" stroke-linecap="round" stroke-linejoin="round"/>
<path fill-rule="evenodd" clip-rule="evenodd" d="M128.833 73.6512C128.112 73.7239 147.371 74.4946 155.695 58.7496C161.13 48.4678 155.845 26.192 157.93 17.3415C159.707 9.80068 162.655 6.77065 162.534 6.78595C153.291 7.96193 138.646 8.64427 127.538 17.3574C118.098 24.7628 122.099 40.2914 121.776 40.9254C121.126 42.2031 117.778 30.0362 97.8237 29.9449C87.4845 29.8976 73.8947 19.2753 66.9618 10.2406C65.8018 8.72905 63.5331 19.2198 69.4177 28.3159C69.5023 28.4464 69.1073 28.3382 68.9522 28.3492C57.0351 29.2056 44.5691 31.9923 36.4996 40.8128C23.3711 55.1634 16.4112 65.9416 36.1209 136.208C39.3846 147.843 39.2323 158.194 40.8091 164.576C44.942 181.304 66.9357 185.445 80.3585 176.94C85.9806 173.378 90.999 160.864 94.6648 154.994C102.925 141.768 128.384 135.763 130.921 93.3114C131.445 84.531 129.476 73.5864 128.833 73.6512Z" fill="#F1DFD6" stroke="black" stroke-width="8" stroke-miterlimit="1.5" stroke-linecap="round" stroke-linejoin="round"/>
<path fill-rule="evenodd" clip-rule="evenodd" d="M152.722 17.3835C137.204 18.6131 130.295 29.7456 131.673 40.5191C133.135 51.9454 133.258 61.5874 133.289 61.2489C133.435 59.6814 133.234 56.489 139.176 56.7289C149.844 57.1596 151.23 41.2286 148.356 28.6284C146.571 20.8033 152.454 19.4162 152.722 17.3835Z" fill="#63534B"/>
<path d="M152.722 17.3835C137.204 18.6131 130.295 29.7456 131.673 40.5191C133.135 51.9454 133.258 61.5874 133.289 61.2489C133.435 59.6814 133.234 56.489 139.176 56.7289C154.407 57.3438 149.364 35.7438 148.72 28.4903" stroke="black" stroke-width="6.25" stroke-miterlimit="1.5" stroke-linecap="round" stroke-linejoin="round"/>
<path fill-rule="evenodd" clip-rule="evenodd" d="M29.4414 52.4431C21.8693 65.4868 24.903 93.6641 31.1481 116.407C34.76 129.56 38.6873 143.709 39.1987 143.865C41.5439 144.582 72.7598 155.203 81.2163 146.424C88.9154 138.431 85.2444 109.688 87.3385 100.321C88.9521 93.103 93.3965 86.7481 102.23 86.5985C112.379 86.4267 121.878 80.3842 124.524 70.0225C125.719 65.344 128.134 52.76 121.99 43.2797C116.262 34.4392 107.511 31.5019 96.6878 31.2354C85.9531 30.9711 67.1196 12.723 67.1196 12.723C67.1196 12.723 65.6335 20.1388 70.9788 28.497C71.338 29.0584 57.3164 29.3141 45.5534 35.1998C38.6682 38.6452 33.2853 45.8215 29.4414 52.4431Z" fill="#EAC8B8" stroke="black" stroke-width="4.17" stroke-miterlimit="1.5" stroke-linecap="round" stroke-linejoin="round"/>
<path fill-rule="evenodd" clip-rule="evenodd" d="M39.1485 143.76C45.9651 145.038 51.0064 147.573 57.8581 147.773C74.3488 148.255 82.204 143.674 82.8414 144.226C83.1131 144.461 81.2179 174.59 74.7507 178.578C72.0099 180.269 67.4324 179.889 63.4166 179.922C56.9677 179.974 49.9278 178.061 44.477 169.985C40.3931 163.934 38.6765 143.671 39.1485 143.76Z" fill="#262625"/>
<path fill-rule="evenodd" clip-rule="evenodd" d="M105.153 102.162C109.324 102.571 112.283 107.267 111.756 112.642C111.229 118.017 107.415 122.049 103.243 121.64C99.0718 121.231 96.1129 116.535 96.64 111.16C97.167 105.785 100.981 101.753 105.153 102.162Z" fill="black"/>
<path fill-rule="evenodd" clip-rule="evenodd" d="M39.0755 126.783C39.6757 125.933 43.4713 126.208 43.9049 127.31C44.2166 128.101 44.7446 135.071 43.9562 135.987C43.4209 136.609 40.7561 136.212 40.1871 135.125C39.2763 133.383 38.3 127.88 39.0755 126.783Z" fill="#413028"/>
<path fill-rule="evenodd" clip-rule="evenodd" d="M48.8984 127.815C47.7746 129.192 47.7566 134.371 49.2042 136.074C50.6946 137.828 61.5162 137.119 62.4052 135.884C63.166 134.828 62.9647 128.271 61.1708 127.907C59.6372 127.596 50.0222 126.438 48.8984 127.815Z" fill="#413028"/>
<path fill-rule="evenodd" clip-rule="evenodd" d="M67.431 127.953C66.3907 128.828 67.2682 133.663 67.7238 135.03C68.0731 136.078 78.2184 135.626 78.8265 132.585C79.089 131.273 79.5545 128.246 78.5506 127.242C78.1215 126.813 69.1324 126.523 67.431 127.953Z" fill="#413028"/>
<path fill-rule="evenodd" clip-rule="evenodd" d="M48.084 113.136C47.5629 115.518 47.7914 121.397 48.5266 122.868C48.9834 123.781 59.1077 125.424 60.8797 123.652C61.8904 122.641 63.0162 113.448 60.9708 112.937C59.9322 112.677 48.5093 111.19 48.084 113.136Z" fill="#413028"/>
<path fill-rule="evenodd" clip-rule="evenodd" d="M65.754 112.502C64.5241 113.012 64.4042 122.157 66.4681 123.554C68.7411 125.092 78.0626 123.43 78.2331 123.26C78.6017 122.891 80.6451 112.171 77.9389 111.495C75.436 110.869 67.7639 111.669 65.754 112.502Z" fill="#413028"/>
<path fill-rule="evenodd" clip-rule="evenodd" d="M37.9239 112.931C36.7569 113.987 37.5584 116.265 38.1981 118.295C39.0895 121.123 39.5569 125.248 43.7402 124.202C44.6818 123.966 44.8262 115.05 43.3304 113.554C42.402 112.625 38.6303 112.292 37.9239 112.931Z" fill="#413028"/>
<path fill-rule="evenodd" clip-rule="evenodd" d="M34.9146 98.3911C33.8363 99.1101 35.6111 108.714 37.0559 109.436C38.1837 110 42.6293 110.165 43.1344 109.828C43.7551 109.414 43.5001 100.163 41.7618 98.9457C40.2978 97.9206 35.993 97.6721 34.9146 98.3911Z" fill="#413028"/>
<path fill-rule="evenodd" clip-rule="evenodd" d="M47.2589 99.6344C46.4239 100.147 46.4327 107.38 47.5461 108.456C48.9139 109.776 59.2281 110.402 61.1739 108.456C61.8815 107.748 62.2802 100.501 61.4035 99.6243C60.5937 98.8144 49.7595 98.0999 47.2589 99.6344Z" fill="#413028"/>
<path fill-rule="evenodd" clip-rule="evenodd" d="M65.6516 99.1806C63.7235 100.619 65.6835 109.109 66.3699 109.338C69.0016 110.215 77.9806 110.017 79.1658 108.005C79.6046 107.26 80.9953 100.539 80.2527 99.3324C79.5809 98.2412 67.5798 97.7426 65.6516 99.1806Z" fill="#413028"/>
<path fill-rule="evenodd" clip-rule="evenodd" d="M30.4509 75.6974C30.5483 79.7633 32.1064 90.9435 34.4089 92.8671C36.9052 94.953 40.0263 94.4692 40.8906 94.1236C42.1651 93.6137 40.6967 76.2744 39.9971 75.808C38.1682 74.5888 30.3897 73.1324 30.4509 75.6974Z" fill="#413028"/>
<path fill-rule="evenodd" clip-rule="evenodd" d="M46.6676 76.2697C44.5954 79.0737 45.1872 92.6422 47.4483 94.3379C49.1568 95.6193 58.8251 95.9236 60.4875 94.926C62.8107 93.5323 65.2812 76.9154 64.8255 76.1764C63.4015 73.8665 48.8914 73.2602 46.6676 76.2697Z" fill="#413028"/>
<path fill-rule="evenodd" clip-rule="evenodd" d="M70.9695 74.277C67.4177 75.5009 63.5923 92.3661 66.7829 94.4318C69.3453 96.0911 81.0309 95.6136 82.2843 94.4318C86.6385 90.3265 86.3868 83.7899 88.9999 81.0498C92.5 77.3792 95.1243 74.0328 94.4305 72.7828C93.0964 70.3796 75.5214 72.7084 70.9695 74.277Z" fill="#413028"/>
<path fill-rule="evenodd" clip-rule="evenodd" d="M100.236 72.3932C97.6656 74.9357 97.3099 83.047 98.1161 83.3414C101.663 84.6373 107.984 81.3201 114.104 77.303C117.15 75.3034 118.227 70.5453 117.417 68.7187C116.811 67.3533 102.806 69.8508 100.236 72.3932Z" fill="#413028"/>
<path fill-rule="evenodd" clip-rule="evenodd" d="M107.705 47.213C104.151 48.6064 99.6708 62.9926 102.04 63.4946C106.973 64.5397 106.84 63.0358 113.176 57.2769C116.114 54.6069 119.6 55.1044 119.882 51.822C120.272 47.2919 110.852 45.9787 107.705 47.213Z" fill="#413028"/>
<path fill-rule="evenodd" clip-rule="evenodd" d="M84.5297 50.2868C80.195 52.4917 71.6384 65.9061 73.1826 68.3323C74.8097 70.8889 92.9482 68.1242 94.5423 66.8489C97.7471 64.285 102.043 49.3976 101.74 48.1854C101.52 47.3056 89.2932 47.8636 84.5297 50.2868Z" fill="#413028"/>
<path fill-rule="evenodd" clip-rule="evenodd" d="M51.5101 51.2874C49.7294 52.7051 43.6464 66.7288 44.8061 69.1979C45.3718 70.4022 66.2169 69.5206 68.6699 67.3929C70.8017 65.5438 78.9818 49.9531 78.7261 49.1862C78.0881 47.2721 54.944 48.5531 51.5101 51.2874Z" fill="#413028"/>
<path fill-rule="evenodd" clip-rule="evenodd" d="M44.4519 53.7199C42.1612 52.0441 36.5866 51.5986 34.583 54.581C32.2718 58.0212 30.2473 67.5028 31.4984 70.4987C32.2713 72.3498 37.6527 70.729 39.0122 70.2191C43.8204 68.4161 45.7491 54.6687 44.4519 53.7199Z" fill="#413028"/>
<path fill-rule="evenodd" clip-rule="evenodd" d="M57.6469 38.1665C54.5314 39.5793 51.9996 45.734 53.9568 46.7735C55.7457 47.7237 60.6093 46.278 67.4744 45.5091C75.4403 44.617 80.249 45.2961 82.5549 44.5666C84.5679 43.9294 90.334 37.1785 89.2368 35.8575C87.4144 33.6643 64.3605 35.1216 57.6469 38.1665Z" fill="#413028"/>
<path fill-rule="evenodd" clip-rule="evenodd" d="M94.5423 37.0712C92.0574 37.438 88.6174 43.3802 89.3326 44.2832C89.9191 45.0237 97.0044 44.126 99.9598 43.7068C101.729 43.456 104.045 43.0611 104.241 42.0819C104.88 38.8895 97.0269 36.7042 94.5423 37.0712Z" fill="#413028"/>
</svg>
