<svg width="819" height="223" viewBox="0 0 819 223" fill="none" xmlns="http://www.w3.org/2000/svg">
<path d="M293.312 66.375H350.812V66.625L308.375 150.312C337.188 150.25 344.312 146.5 349.938 133.875H350.312L349.438 156H291.875V155.75L334.75 72.125C305.875 72.1875 299 75.875 292.812 86.6875H292.438L293.312 66.375ZM358.75 156V155.75C360.938 153.375 361.938 149.938 361.938 145L362 107.25C362 102 360.875 98.4375 357.562 96.25V95.75L373.5 90.9375V145C373.5 149.938 374.5 153.375 376.688 155.75V156H358.75ZM359.188 73.5625C359.188 69.0625 363.062 65.25 367.688 65.25C372.125 65.25 376 69.0625 376 73.5625C376 78.1875 372.125 82 367.688 82C363.062 82 359.188 78.1875 359.188 73.5625ZM385.5 156V155.75C387.75 153.375 388.75 149.938 388.75 145V68.875C388.75 63.625 387.688 60.0625 384.312 57.875V57.375L400.25 52.5625V145C400.25 149.938 401.312 153.375 403.5 155.75V156H385.5ZM400.438 121.438L415.688 107C424.312 98.9375 426.375 94.6875 423.125 92.125V92H441.438L441.375 92.1875C436.125 95.5625 430.688 99.75 426.312 103.875L411.625 117.688L443 155.875L442.938 156H428.688L400.438 121.438ZM447.5 156V155.75C449.75 153.375 450.75 149.938 450.75 145V68.875C450.75 63.625 449.688 60.0625 446.312 57.875V57.375L462.25 52.5625V145C462.25 149.938 463.312 153.375 465.5 155.75V156H447.5ZM462.438 121.438L477.688 107C486.312 98.9375 488.375 94.6875 485.125 92.125V92H503.438L503.375 92.1875C498.125 95.5625 492.688 99.75 488.312 103.875L473.625 117.688L505 155.875L504.938 156H490.688L462.438 121.438ZM509.75 156V155.75C511.938 153.375 512.938 149.938 512.938 145L513 107.25C513 102 511.875 98.4375 508.562 96.25V95.75L524.5 90.9375V145C524.5 149.938 525.5 153.375 527.688 155.75V156H509.75ZM510.188 73.5625C510.188 69.0625 514.062 65.25 518.688 65.25C523.125 65.25 527 69.0625 527 73.5625C527 78.1875 523.125 82 518.688 82C514.062 82 510.188 78.1875 510.188 73.5625ZM563.625 150.25C578.5 150.25 583.562 148.875 590.062 137.688H590.312L589.625 156H536.312V155.75C539.938 152.25 541 148.25 541 140.875V81.5C541 74.125 539.938 70.125 536.312 66.625V66.375H557.812V66.625C554.125 70.125 553.125 74.125 553.125 81.5V150.25H563.625ZM593.688 124.125C593.688 104.938 607.812 90.625 625.75 90.625C641.312 90.625 655.5 101.5 655.562 122.562H605.812C605.938 138.062 614.312 148.438 628.875 148.438C636.812 148.438 645 146 653.375 133.938H653.625L653.5 140.125C648.25 152.812 637.438 157.688 626.562 157.688C605.938 157.688 593.688 142.438 593.688 124.125ZM606.062 117.562L643.312 117.688C642.062 103.438 636.625 96.0625 625.125 96.0625C614.75 96.0625 607.438 104.625 606.062 117.562ZM677.25 157.438C669.375 157.438 663.062 151.875 663.062 142.812C663.062 123.812 690.938 121.688 691.125 104.062C691.188 99.0625 689 95.4375 683.812 95.4375C677.312 95.4375 668.938 101.625 663.438 113.938H663.188V97.625C667.438 93.375 675.25 90 683.938 90C695.062 90 702.562 95.625 702.438 109L702.188 145.062C702.188 147.75 703.188 148.688 704.5 148.688C706 148.688 707.688 147.5 708.812 144.938L708.938 149.062C707.75 155.25 703.688 157 700.312 157C694.375 157 691.875 152.125 692.062 145.688H691.875C689.625 153.75 683.938 157.438 677.25 157.438ZM674.812 140.625C674.812 148.5 678.938 151 682.25 151C685.688 151 689.5 148.188 690.938 140.688L691.188 113C687.938 124.125 674.812 126.5 674.812 140.625ZM715.25 156V155.75C717.5 153.375 718.5 149.938 718.5 145V68.875C718.5 63.625 717.438 60.0625 714.062 57.875V57.375L730 52.5625V145C730 149.938 731.062 153.375 733.25 155.75V156H715.25ZM730.188 121.438L745.438 107C754.062 98.9375 756.125 94.6875 752.875 92.125V92H771.188L771.125 92.1875C765.875 95.5625 760.438 99.75 756.062 103.875L741.375 117.688L772.75 155.875L772.688 156H758.438L730.188 121.438ZM776 107.875C776 97.75 784.062 90.875 795.688 90.875C802.75 90.875 809.812 92.8125 813.5 95.0625V111.625H813.25C809.312 100.688 801.75 96.0625 795.312 96.0625C788.938 96.0625 786 100.375 786 104.938C786 110.875 790.5 114.375 794.875 116.875L799.5 119.5C807.125 123.812 815.438 128.938 815.438 139.375C815.438 150.688 807.062 157.125 795.438 157.125C787.625 157.125 780.625 154.688 776.75 151.75V134.188H777C781 146.562 788.375 151.938 795.75 151.938C801.625 151.938 805.625 148.062 805.625 143.312C805.625 137.125 800.188 133 796.188 130.625L790.75 127.438C785.625 124.5 776 119.125 776 107.875Z" fill="#F9BC60"/>
<path d="M124.527 219.651C178.862 219.651 222.909 175.834 222.909 121.782C222.909 67.7306 178.862 23.9132 124.527 23.9132C70.1919 23.9132 26.1448 67.7306 26.1448 121.782C26.1448 175.834 70.1919 219.651 124.527 219.651Z" fill="black"/>
<path fill-rule="evenodd" clip-rule="evenodd" d="M117.959 151.151C111.514 145.97 109.538 157.243 96.7572 155.974C85.256 154.831 69.047 163.386 66.0948 171.067C57.773 192.718 76.8253 210.468 96.7572 215.417C132.346 224.253 155.651 210.47 154.663 209.139C147.459 199.439 127.456 158.785 117.959 151.151Z" fill="#EAC8B8" stroke="black" stroke-width="8" stroke-miterlimit="1.5" stroke-linecap="round" stroke-linejoin="round"/>
<path fill-rule="evenodd" clip-rule="evenodd" d="M115.135 151.881C120.023 150.193 158.166 178.355 194.137 186.998C195.181 187.249 181.327 213.928 152.939 208.38C139.963 205.844 120.364 175.984 115.135 151.881Z" fill="#F1DFD6" stroke="black" stroke-width="12.5" stroke-miterlimit="1.5" stroke-linecap="round" stroke-linejoin="round"/>
<path fill-rule="evenodd" clip-rule="evenodd" d="M118.196 151.741C118.186 151.738 142.631 183.034 178.194 187.817C188.391 189.188 190.886 195.078 195.688 195.503C214.131 197.139 224.59 168.475 213.488 165.676C199.141 162.06 151.935 167.118 118.196 151.741Z" fill="#F1DFD6" stroke="black" stroke-width="8" stroke-miterlimit="1.5" stroke-linecap="round" stroke-linejoin="round"/>
<path opacity="0.8" fill-rule="evenodd" clip-rule="evenodd" d="M123.348 154.563C120.376 155.509 135.248 173.014 188.746 170.242C209.507 169.166 221.1 179.476 226.96 177.893C241.172 174.053 246.098 124.782 229.264 120.724C212.614 116.711 214.561 122.99 189.195 133.854C160.938 145.955 131.712 151.9 123.348 154.563Z" fill="#F1DFD6" stroke="black" stroke-width="8" stroke-miterlimit="1.5" stroke-linecap="round" stroke-linejoin="round"/>
<path fill-rule="evenodd" clip-rule="evenodd" d="M134.014 150.407C137.453 147.35 208.419 68.121 218.156 66.9464C236.755 64.7028 245.397 82.8418 248.134 96.5677C250.805 109.968 247.095 129.04 239.814 131.07C228.018 134.359 219.05 122.696 198.508 133.153C171.997 146.65 134.014 150.407 134.014 150.407Z" fill="#F1DFD6" stroke="black" stroke-width="8" stroke-miterlimit="1.5" stroke-linecap="round" stroke-linejoin="round"/>
<path fill-rule="evenodd" clip-rule="evenodd" d="M123.216 151.881C123.172 151.924 130.674 152.243 134.014 138.813C137.88 123.271 153.672 43.438 168.176 35.0118C179.892 28.2051 192.68 30.62 199.124 30.7318C219.663 31.0876 243.244 61.1578 228.635 80.263C223.471 87.0166 201.696 88.1388 184.57 104.279C163.289 124.334 135.28 157.141 123.216 151.881Z" fill="#F1DFD6" stroke="black" stroke-width="8" stroke-miterlimit="1.5" stroke-linecap="round" stroke-linejoin="round"/>
<path fill-rule="evenodd" clip-rule="evenodd" d="M117.011 150.202C93.4563 145.32 67.067 51.2691 114.04 13.6698C129.608 1.20851 156.64 1.20671 173.336 5.85981C186.904 9.64099 200.526 24.5912 198.26 31.7926C192.171 51.1512 167.263 65.8376 157.245 82.9374C143.432 106.513 145.363 127.742 138.089 142.97C134.557 150.365 128.886 152.663 117.011 150.202Z" fill="#EAC8B8" stroke="black" stroke-width="6" stroke-miterlimit="1.5" stroke-linecap="round" stroke-linejoin="round"/>
<path fill-rule="evenodd" clip-rule="evenodd" d="M188.526 16.3098C187.51 15.7255 190.23 21.0256 189.608 30.2259C188.826 41.7896 164.325 55.0021 148.74 80.6753C140.972 93.4717 134.692 121.174 133.656 135.107C132.988 144.087 122.796 149.298 122.971 149.342C129.829 151.102 134.778 147.594 136.248 144.266C142.774 129.497 144.1 111.787 149.547 95.4683C158.293 69.2625 188.624 55.3515 196.764 31.8611C198.581 26.6204 190.23 17.2899 188.526 16.3098Z" fill="#413028" fill-opacity="0.42"/>
<path fill-rule="evenodd" clip-rule="evenodd" d="M246.302 118.491C238.135 126.673 226.889 116.868 211.199 119.784C204.867 120.961 194.735 128.644 176.355 134.635C157.81 140.681 135.635 149.599 135.748 149.601C145.998 149.712 167.23 152.412 189.138 144.843C196.368 142.345 202.872 136.893 210.823 135.58C219.8 134.097 232.724 137.475 237.203 133.105C238.46 131.878 239.794 130.769 242.058 127.937C245.616 123.485 246.613 118.178 246.302 118.491Z" fill="#413028" fill-opacity="0.48"/>
<path fill-rule="evenodd" clip-rule="evenodd" d="M234.409 167.39C221.322 172.463 215.728 166.696 201.506 164.514C190.172 162.775 177.2 164.69 159.171 163.722C143.825 162.898 124.517 155.458 124.527 155.518C125.324 160.456 136.065 167.257 140.853 169.076C144.779 170.568 150.876 172.486 157.695 173.465C172.786 175.632 187.024 176.373 197.92 174.995C204.649 174.144 213.184 177.706 216.429 176.696C219.616 175.703 223.437 177.598 226.239 176.745C229.919 175.625 232.538 172.012 234.409 167.39Z" fill="#413028" fill-opacity="0.51"/>
<path fill-rule="evenodd" clip-rule="evenodd" d="M114.235 150.006C111.694 154.623 109.821 184.005 142.056 208.575C143.49 209.668 135.778 210.672 124.527 210.855C116.465 210.987 107.738 212.377 89.924 204.168C73.1236 196.425 65.3579 181.756 65.4089 182.616C65.9997 192.576 73.6125 203.554 82.4367 208.081C94.2215 214.126 107.269 218.082 122.487 217.172C136.715 216.322 142.187 213.25 149.141 212.627C155.51 212.056 159.307 208.564 159.649 208.221C159.778 208.093 152.22 205.857 146.698 199.354C135.327 185.965 121.676 165.248 117.291 153.349C116.214 150.427 114.235 150.808 114.235 150.006Z" fill="#413028" fill-opacity="0.47"/>
<path fill-rule="evenodd" clip-rule="evenodd" d="M199.974 194.188C198.503 191.671 188.167 185.672 181.299 184.626C147.123 179.423 118.624 155.518 119.338 155.518C121.016 155.518 128.487 170.417 148.325 181.177C164.555 189.981 170.848 188.64 181.299 192.707C188.765 195.612 198.072 195.139 199.974 194.188Z" fill="#413028" fill-opacity="0.4"/>
<path fill-rule="evenodd" clip-rule="evenodd" d="M229.805 56.4484C229.657 55.0799 234.168 71.0597 213.504 79.4515C193.551 87.5547 182.432 94.2182 167.631 110.922C151.049 129.636 150.252 136.756 130.927 149.813C128.698 151.319 142.973 143.74 149.345 137.222C155.674 130.747 166.158 121.207 184.254 102.705C189.013 97.8383 198.158 92.6898 204.478 89.8563C214.238 85.4807 222.3 84.1797 227.054 80.1795C231.518 76.423 233.884 67.7137 229.805 56.4484Z" fill="#413028" fill-opacity="0.51"/>
<path fill-rule="evenodd" clip-rule="evenodd" d="M45.1453 35.6287C38.8944 21.7684 25.3005 24.5888 20.0642 22.5333C13.1885 19.8345 10.9771 14.8832 8.85361 14.2526C4.12269 12.8476 -3.3486 40.7325 21.5384 54.9046C31.2659 60.4438 47.4762 40.7966 45.1453 35.6287Z" fill="#DEC6BA" stroke="black" stroke-width="8" stroke-miterlimit="1.5" stroke-linecap="round" stroke-linejoin="round"/>
<path fill-rule="evenodd" clip-rule="evenodd" d="M128.833 73.6513C128.112 73.7239 147.371 74.4946 155.695 58.7497C161.131 48.4679 155.845 26.1921 157.93 17.3415C159.707 9.80076 162.655 6.77073 162.534 6.78602C153.291 7.96201 138.646 8.64434 127.538 17.3575C118.098 24.7629 122.099 40.2915 121.777 40.9255C121.126 42.2031 117.778 30.0363 97.8238 29.9449C87.4846 29.8977 73.8948 19.2754 66.962 10.2407C65.8019 8.72913 63.5332 19.2199 69.4178 28.316C69.5024 28.4465 69.1075 28.3383 68.9523 28.3493C57.0353 29.2057 44.5693 31.9924 36.4998 40.8128C23.3712 55.1635 16.4113 65.9416 36.121 136.208C39.3847 147.843 39.2325 158.194 40.8092 164.576C44.9421 181.304 66.9359 185.445 80.3586 176.941C85.9808 173.378 90.9991 160.864 94.6649 154.994C102.925 141.768 128.384 135.763 130.921 93.3115C131.445 84.5311 129.476 73.5865 128.833 73.6513Z" fill="#F1DFD6" stroke="black" stroke-width="8" stroke-miterlimit="1.5" stroke-linecap="round" stroke-linejoin="round"/>
<path fill-rule="evenodd" clip-rule="evenodd" d="M152.722 17.3836C137.204 18.6131 130.295 29.7457 131.673 40.5191C133.135 51.9454 133.258 61.5874 133.289 61.2489C133.435 59.6814 133.235 56.489 139.177 56.729C149.844 57.1596 151.231 41.2287 148.356 28.6284C146.571 20.8034 152.454 19.4162 152.722 17.3836Z" fill="#63534B"/>
<path d="M152.722 17.3836C137.204 18.6131 130.295 29.7457 131.673 40.5191C133.135 51.9454 133.258 61.5874 133.289 61.2489C133.435 59.6814 133.235 56.489 139.177 56.729C154.407 57.3438 149.364 35.7439 148.72 28.4903" stroke="black" stroke-width="6.25" stroke-miterlimit="1.5" stroke-linecap="round" stroke-linejoin="round"/>
<path fill-rule="evenodd" clip-rule="evenodd" d="M29.4413 52.4431C21.8692 65.4869 24.9029 93.6641 31.148 116.407C34.7598 129.56 38.6872 143.709 39.1986 143.865C41.5438 144.582 72.7597 155.203 81.2162 146.424C88.9153 138.432 85.2443 109.688 87.3383 100.321C88.952 93.103 93.3964 86.7481 102.23 86.5986C112.379 86.4267 121.878 80.3842 124.524 70.0226C125.719 65.3441 128.133 52.76 121.99 43.2797C116.262 34.4393 107.511 31.5019 96.6877 31.2354C85.953 30.9711 67.1195 12.7231 67.1195 12.7231C67.1195 12.7231 65.6334 20.1388 70.9787 28.4971C71.3379 29.0584 57.3163 29.3141 45.5533 35.1999C38.6681 38.6453 33.2852 45.8215 29.4413 52.4431Z" fill="#EAC8B8" stroke="black" stroke-width="4.17" stroke-miterlimit="1.5" stroke-linecap="round" stroke-linejoin="round"/>
<path fill-rule="evenodd" clip-rule="evenodd" d="M39.1484 143.76C45.965 145.038 51.0063 147.573 57.858 147.773C74.3487 148.255 82.2039 143.674 82.8413 144.226C83.1129 144.461 81.2177 174.59 74.7506 178.578C72.0098 180.269 67.4323 179.889 63.4165 179.922C56.9676 179.974 49.9277 178.061 44.4769 169.985C40.393 163.934 38.6763 143.671 39.1484 143.76Z" fill="#262625"/>
<path fill-rule="evenodd" clip-rule="evenodd" d="M105.153 102.162C109.325 102.571 112.283 107.267 111.756 112.642C111.229 118.017 107.415 122.049 103.243 121.64C99.072 121.231 96.113 116.535 96.6402 111.16C97.1671 105.785 100.982 101.753 105.153 102.162Z" fill="black"/>
<path fill-rule="evenodd" clip-rule="evenodd" d="M39.0753 126.783C39.6756 125.933 43.4712 126.208 43.9048 127.31C44.2165 128.101 44.7445 135.071 43.956 135.987C43.4208 136.609 40.756 136.212 40.187 135.125C39.2762 133.383 38.2999 127.88 39.0753 126.783Z" fill="#413028"/>
<path fill-rule="evenodd" clip-rule="evenodd" d="M48.8981 127.815C47.7743 129.192 47.7563 134.371 49.204 136.074C50.6944 137.828 61.516 137.119 62.405 135.884C63.1658 134.828 62.9645 128.271 61.1705 127.907C59.6369 127.596 50.0219 126.438 48.8981 127.815Z" fill="#413028"/>
<path fill-rule="evenodd" clip-rule="evenodd" d="M67.4309 127.953C66.3905 128.828 67.2681 133.663 67.7237 135.03C68.073 136.078 78.2183 135.626 78.8264 132.585C79.0889 131.274 79.5544 128.246 78.5505 127.242C78.1214 126.813 69.1323 126.523 67.4309 127.953Z" fill="#413028"/>
<path fill-rule="evenodd" clip-rule="evenodd" d="M48.0839 113.136C47.5628 115.518 47.7913 121.397 48.5265 122.868C48.9832 123.781 59.1076 125.424 60.8796 123.652C61.8903 122.641 63.0161 113.448 60.9707 112.937C59.9321 112.677 48.5092 111.19 48.0839 113.136Z" fill="#413028"/>
<path fill-rule="evenodd" clip-rule="evenodd" d="M65.7538 112.502C64.5238 113.012 64.404 122.157 66.4678 123.554C68.7409 125.092 78.0624 123.43 78.2328 123.26C78.6014 122.891 80.6448 112.171 77.9387 111.495C75.4358 110.869 67.7637 111.669 65.7538 112.502Z" fill="#413028"/>
<path fill-rule="evenodd" clip-rule="evenodd" d="M37.9239 112.931C36.7569 113.987 37.5584 116.265 38.1981 118.295C39.0895 121.123 39.5569 125.248 43.7402 124.202C44.6818 123.966 44.8262 115.05 43.3304 113.554C42.402 112.625 38.6303 112.292 37.9239 112.931Z" fill="#413028"/>
<path fill-rule="evenodd" clip-rule="evenodd" d="M34.9145 98.3912C33.8361 99.1101 35.611 108.714 37.0558 109.436C38.1836 110 42.6291 110.165 43.1343 109.828C43.755 109.414 43.4999 100.163 41.7617 98.9457C40.2976 97.9207 35.9929 97.6722 34.9145 98.3912Z" fill="#413028"/>
<path fill-rule="evenodd" clip-rule="evenodd" d="M47.2588 99.6344C46.4238 100.147 46.4325 107.38 47.546 108.456C48.9138 109.776 59.228 110.402 61.1738 108.456C61.8813 107.748 62.2801 100.501 61.4034 99.6243C60.5936 98.8145 49.7594 98.1 47.2588 99.6344Z" fill="#413028"/>
<path fill-rule="evenodd" clip-rule="evenodd" d="M65.6514 99.1806C63.7234 100.619 65.6834 109.109 66.3697 109.338C69.0015 110.215 77.9805 110.017 79.1657 108.005C79.6044 107.26 80.9952 100.539 80.2526 99.3324C79.5808 98.2412 67.5797 97.7426 65.6514 99.1806Z" fill="#413028"/>
<path fill-rule="evenodd" clip-rule="evenodd" d="M30.4508 75.6974C30.5482 79.7633 32.1063 90.9435 34.4088 92.8671C36.9051 94.953 40.0262 94.4692 40.8905 94.1235C42.165 93.6137 40.6966 76.2744 39.997 75.808C38.1681 74.5888 30.3896 73.1324 30.4508 75.6974Z" fill="#413028"/>
<path fill-rule="evenodd" clip-rule="evenodd" d="M46.6675 76.2697C44.5953 79.0737 45.187 92.6421 47.4481 94.3379C49.1567 95.6193 58.825 95.9236 60.4874 94.926C62.8106 93.5323 65.2811 76.9154 64.8254 76.1764C63.4014 73.8665 48.8913 73.2601 46.6675 76.2697Z" fill="#413028"/>
<path fill-rule="evenodd" clip-rule="evenodd" d="M70.9694 74.277C67.4176 75.5008 63.5921 92.366 66.7827 94.4317C69.3452 96.091 81.0308 95.6135 82.2842 94.4317C86.6384 90.3265 86.3867 83.7898 88.9998 81.0497C92.4999 77.3792 95.1242 74.0327 94.4304 72.7827C93.0963 70.3795 75.5213 72.7083 70.9694 74.277Z" fill="#413028"/>
<path fill-rule="evenodd" clip-rule="evenodd" d="M100.235 72.3932C97.6655 74.9357 97.3097 83.047 98.116 83.3414C101.663 84.6372 107.984 81.32 114.104 77.3029C117.15 75.3034 118.227 70.5452 117.417 68.7186C116.811 67.3533 102.806 69.8508 100.235 72.3932Z" fill="#413028"/>
<path fill-rule="evenodd" clip-rule="evenodd" d="M107.705 47.2129C104.151 48.6064 99.6708 62.9926 102.04 63.4945C106.973 64.5396 106.84 63.0357 113.176 57.2768C116.114 54.6068 119.6 55.1043 119.882 51.822C120.272 47.2919 110.852 45.9787 107.705 47.2129Z" fill="#413028"/>
<path fill-rule="evenodd" clip-rule="evenodd" d="M84.5295 50.2868C80.1948 52.4917 71.6382 65.9061 73.1823 68.3322C74.8094 70.8889 92.948 68.1242 94.5421 66.8488C97.7468 64.285 102.043 49.3975 101.74 48.1854C101.52 47.3056 89.293 47.8635 84.5295 50.2868Z" fill="#413028"/>
<path fill-rule="evenodd" clip-rule="evenodd" d="M51.51 51.2873C49.7292 52.7051 43.6462 66.7287 44.806 69.1979C45.3716 70.4022 66.2168 69.5206 68.6698 67.3928C70.8016 65.5437 78.9817 49.953 78.726 49.1861C78.088 47.272 54.9439 48.553 51.51 51.2873Z" fill="#413028"/>
<path fill-rule="evenodd" clip-rule="evenodd" d="M44.4518 53.7199C42.161 52.0441 36.5865 51.5986 34.5829 54.581C32.2717 58.0212 30.2471 67.5028 31.4982 70.4987C32.2712 72.3498 37.6525 70.729 39.012 70.2191C43.8203 68.4161 45.749 54.6687 44.4518 53.7199Z" fill="#413028"/>
<path fill-rule="evenodd" clip-rule="evenodd" d="M57.6468 38.1664C54.5313 39.5792 51.9994 45.734 53.9567 46.7735C55.7455 47.7236 60.6091 46.278 67.4743 45.5091C75.4401 44.6169 80.2489 45.2961 82.5547 44.5665C84.5678 43.9294 90.3339 37.1785 89.2366 35.8574C87.4143 33.6642 64.3604 35.1216 57.6468 38.1664Z" fill="#413028"/>
<path fill-rule="evenodd" clip-rule="evenodd" d="M94.5422 37.0712C92.0573 37.438 88.6173 43.3802 89.3324 44.2832C89.919 45.0237 97.0043 44.126 99.9597 43.7068C101.728 43.456 104.045 43.0611 104.241 42.0819C104.88 38.8895 97.0268 36.7042 94.5422 37.0712Z" fill="#413028"/>
</svg>
