<svg width="268" height="269" viewBox="0 0 268 269" fill="none" xmlns="http://www.w3.org/2000/svg">
<path d="M220.234 236.182H37.0376V104.493C37.0372 92.4188 39.4064 80.4627 44.0098 69.3075C48.6131 58.1523 55.3605 48.0165 63.8667 39.4788C72.3729 30.9412 82.4712 24.1689 93.5851 19.5487C104.699 14.9284 116.611 12.5508 128.64 12.5515C140.669 12.5519 152.58 14.9303 163.692 19.551C174.805 24.1717 184.903 30.9441 193.408 39.4817C201.913 48.0192 208.66 58.1547 213.263 69.3094C217.866 80.464 220.235 92.4195 220.234 104.493V236.182Z" fill="#E9CF81"/>
<path d="M37.0376 235.792C37.0376 235.792 42.7353 199.695 52.1769 159.097C61.6186 118.5 74.8068 73.4048 89.78 55.4141C92.4037 52.2641 95.1722 50.8008 97.284 50.1283C98.4336 49.7319 99.6438 49.5416 100.859 49.5661C103.636 49.6145 106.042 50.8142 107.958 52.2345C109.487 53.4122 110.881 54.7564 112.115 56.2426C118.37 63.4572 127.34 89.8972 135 115.541C142.659 141.185 149.008 166.019 150.04 170.043C150.241 166.223 151.198 150.245 155.132 134.479C159.066 118.713 165.959 103.162 178.035 100.197C178.893 100.007 179.764 99.8788 180.64 99.8153C182.585 99.6426 184.545 99.7715 186.45 100.197C200.692 103.579 208.925 130.949 213.703 160.835C218.482 190.721 219.806 223.122 220.234 236.564L128.64 236.182L37.0376 235.792Z" fill="#353519"/>
<path d="M86.4756 68.1941H68.5196C65.2017 72.5788 62.2966 76.6837 59.7908 80.3906C57.285 84.0974 55.1785 87.4034 53.4633 90.1929C48.2614 98.6422 44.3513 105.039 41.6713 110.758C38.9913 116.477 37.5012 121.518 37.1475 127.256C36.9293 130.597 37.0541 133.952 37.52 137.268C38.3057 143.043 40.2055 148.61 43.1132 153.655C49.5344 164.647 59.7024 170.546 68.608 173.704C74.3646 175.756 80.3804 176.984 86.4782 177.352V161.777C83.4127 161.468 80.3832 160.868 77.4306 159.985C73.4818 158.806 69.7106 157.095 66.2201 154.898C64.669 153.952 63.1737 152.916 61.7418 151.797C60.0689 150.466 58.5785 148.919 57.3091 147.197C56.1139 145.564 55.1288 143.786 54.3772 141.905C53.6944 140.193 53.188 138.414 52.8657 136.598C52.3765 133.859 52.2862 131.062 52.5977 128.297C52.9051 125.527 53.5877 122.812 54.6264 120.227C56.3041 116.03 58.2793 111.549 60.6082 106.86C62.9371 102.171 65.6225 97.2784 68.7179 92.2669C71.6846 87.4599 74.713 83.0563 77.7066 79.0482C80.7002 75.0401 83.6482 71.4302 86.4756 68.1941Z" fill="#F4ECE5"/>
<path d="M181.436 113.343C182.448 117.536 182.874 121.85 182.704 126.161C182.547 130.49 181.65 134.759 180.05 138.782C178.971 141.453 177.544 143.968 175.808 146.263C174.074 148.561 172.015 150.592 169.698 152.294C167.247 154.122 164.39 155.322 161.374 155.791C158.519 156.243 155.536 156.095 152.28 155.705C150.11 155.42 147.904 155.571 145.792 156.149C143.789 156.71 141.941 157.729 140.394 159.124C138.989 160.438 137.917 162.069 137.267 163.883C136.607 165.693 136.189 167.582 136.023 169.502C135.962 170.126 135.876 173.268 135.817 176.249C135.758 179.229 135.737 182.056 135.801 182.056H126.153C126.153 182.056 126.067 180.338 126.056 177.938C126.025 175.201 126.141 172.464 126.402 169.739C126.635 167.403 127.062 165.091 127.678 162.826C128.501 159.852 129.746 157.013 131.374 154.395C132.423 152.702 133.695 151.158 135.155 149.806C136.612 148.446 138.296 147.353 140.129 146.578C142.236 145.712 144.457 145.456 146.706 145.44C148.954 145.424 151.224 145.645 153.435 145.731C155.698 145.837 157.962 145.564 160.135 144.924C162.308 144.283 164.318 143.182 166.031 141.696C171.391 136.988 172.683 130.317 172.219 123.379C171.756 116.442 169.539 109.235 167.867 103.473C167.044 100.638 166.122 97.542 165.093 94.2118C164.064 90.8816 162.925 87.32 161.674 83.5513L166.591 81.7706L171.52 79.9683C172.794 83.5352 174.034 87.2205 175.24 91.0242C176.446 94.8278 177.607 98.7481 178.724 102.785C179.217 104.578 179.689 106.354 180.139 108.114C180.589 109.873 181.021 111.616 181.436 113.343Z" fill="#BAB653"/>
<path d="M171.93 120.103C171.585 118.511 171.241 116.918 170.898 115.326C170.555 113.733 170.211 112.144 169.866 110.559C169.826 110.395 169.791 110.263 169.762 110.147L169.684 109.835C169.625 109.604 169.545 109.297 169.416 108.845C169.288 108.393 169.148 107.821 168.918 107.062C168.001 103.872 167.176 101.093 166.578 99.113C165.98 97.1332 165.613 95.9496 165.613 95.9496C165.077 94.2629 164.498 92.3719 163.842 90.3006C163.185 88.2293 162.464 85.9696 161.679 83.546L166.597 81.7652L171.52 79.9683C172.487 82.5776 173.35 85.0013 174.112 87.1963C174.873 89.3913 175.532 91.3604 176.092 93.0686C176.21 93.4263 177.322 96.8346 178.595 101.348C179.868 105.862 181.302 111.433 182.079 116.114C182.259 117.214 182.42 118.379 182.537 119.627C182.655 120.875 182.736 122.212 182.749 123.662C182.749 124.587 182.749 125.437 182.709 126.196C182.669 126.954 182.629 127.622 182.58 128.178L177.261 124.143L171.93 120.103Z" fill="#666538"/>
<path d="M218.24 132.561C217.585 131.459 216.705 130.509 215.659 129.771C214.613 129.033 213.425 128.525 212.17 128.278C209.611 127.783 206.96 128.195 204.67 129.444C202.379 130.693 200.592 132.7 199.612 135.124C198.88 134.634 198.101 134.219 197.286 133.887C195.752 133.24 194.103 132.918 192.44 132.941C190.777 132.963 189.137 133.329 187.621 134.016C186.106 134.703 184.748 135.697 183.632 136.934C182.516 138.172 181.666 139.627 181.136 141.209C181.018 141.551 180.916 141.898 180.825 142.247C178.5 141.392 176.005 141.11 173.549 141.424C169.896 141.868 166.739 143.487 164.584 145.747C162.429 148.007 161.277 150.901 161.636 153.903C161.995 156.905 163.807 159.439 166.439 161.112C169.07 162.785 172.522 163.6 176.175 163.157C179.828 162.713 182.985 161.091 185.14 158.831C185.66 158.288 186.127 157.696 186.536 157.064C187.253 157.539 188.014 157.943 188.809 158.269C190.342 158.916 191.992 159.238 193.655 159.216C195.319 159.193 196.959 158.827 198.475 158.14C199.991 157.452 201.349 156.459 202.465 155.22C203.581 153.982 204.431 152.527 204.961 150.944C205.358 149.797 205.595 148.6 205.666 147.388C205.843 147.434 206.02 147.477 206.202 147.514C208.883 148.031 211.661 147.552 214.016 146.167C216.372 144.781 218.146 142.583 219.007 139.982C219.406 138.761 219.544 137.468 219.412 136.189C219.28 134.911 218.881 133.674 218.24 132.561Z" fill="#BAB653"/>
<path d="M169.17 152.636C169.092 152.636 169.017 152.608 168.958 152.558C168.896 152.507 168.854 152.435 168.84 152.356C168.825 152.269 168.845 152.18 168.895 152.107C168.945 152.035 169.022 151.985 169.108 151.969C171.641 151.517 174.173 150.998 176.69 150.417C179.206 149.836 181.704 149.185 184.178 148.488C190.107 146.783 195.924 144.71 201.598 142.282C207.301 139.84 212.851 137.049 218.214 133.924C218.291 133.88 218.382 133.869 218.468 133.892C218.554 133.915 218.627 133.971 218.672 134.048C218.696 134.088 218.711 134.133 218.717 134.179C218.723 134.225 218.719 134.272 218.707 134.317C218.684 134.403 218.628 134.477 218.551 134.522C213.161 137.658 207.584 140.461 201.852 142.914C196.156 145.354 190.314 147.435 184.36 149.147C181.884 149.86 179.372 150.511 176.856 151.097C174.339 151.684 171.783 152.206 169.239 152.657H169.18L169.17 152.636Z" fill="#666538"/>
<path d="M143.82 96.84V96.8534V96.8696C141.617 101.827 143.04 106.841 146.25 110.064C149.461 113.287 154.456 114.715 159.396 112.501C161.336 117.553 165.892 120.098 170.424 120.098C174.956 120.098 179.504 117.553 181.436 112.49H181.452C186.389 114.704 191.387 113.273 194.584 110.053C197.781 106.833 199.22 101.816 197.015 96.8588V96.8427V96.8292C202.069 94.8897 204.594 90.3329 204.594 85.776C204.594 81.2192 202.072 76.665 197.026 74.7336V74.7201C199.231 69.7624 197.805 64.7483 194.595 61.5257C191.384 58.303 186.389 56.8747 181.463 59.0885H181.447C179.514 54.0179 174.975 51.4812 170.435 51.4812C165.895 51.4812 161.352 54.0179 159.42 59.0885C154.481 56.8747 149.485 58.303 146.274 61.5257C143.064 64.7483 141.641 69.7624 143.844 74.7201V74.7336C138.792 76.6731 136.265 81.2299 136.265 85.7895C136.265 90.349 138.768 94.9032 143.82 96.84Z" fill="#DEB8FC"/>
<path d="M157.689 88.4311C158.154 91.3891 159.628 94.0935 161.857 96.0835C164.087 98.0735 166.935 99.2259 169.916 99.3445C172.897 99.4631 175.827 98.5404 178.207 96.7337C180.586 94.927 182.268 92.3481 182.965 89.4364C183.663 86.5247 183.333 83.4602 182.032 80.7653C180.731 78.0704 178.539 75.9117 175.83 74.657C173.121 73.4023 170.062 73.1292 167.175 73.8843C164.288 74.6395 161.751 76.3761 159.996 78.7982C158.998 80.1723 158.281 81.7306 157.885 83.3837C157.489 85.0368 157.422 86.7521 157.689 88.4311Z" fill="#F4ECE5"/>
<path d="M210.021 143.52C209.694 144.633 208.812 147.697 207.984 151.614C207.156 155.53 206.389 160.297 206.288 164.824C206.261 165.951 206.234 167.184 206.288 168.574C206.338 170.149 206.484 171.719 206.724 173.276C206.925 174.578 207.102 175.358 207.306 176.249C207.51 177.139 207.751 178.132 208.075 179.894C208.399 181.656 208.611 183.189 208.761 184.55C208.911 185.911 208.989 187.065 209.029 187.956C208.988 189.475 208.905 191.034 208.78 192.634C208.655 194.233 208.482 195.865 208.26 197.529C207.24 205.094 205.29 212.504 202.455 219.587C200.134 225.387 197.283 230.958 193.938 236.23H190.095C191.636 232.889 193.499 228.717 195.455 223.98C197.411 219.243 199.491 213.938 201.445 208.335C202.209 206.14 203.01 203.746 203.659 201.072C204.378 198.142 204.811 195.148 204.95 192.133C205.044 190.129 204.999 188.23 204.915 186.691C204.832 185.153 204.712 183.974 204.647 183.42C204.429 181.402 204.106 179.396 203.68 177.411C203.342 175.848 203.042 174.783 202.932 174.363C202.367 172.211 202.034 169.007 202.396 164.009C202.758 159.011 203.782 152.224 205.958 142.904L207.995 143.21L210.021 143.52Z" fill="#F4ECE5"/>
<path d="M203.9 188.908L202.68 188.943L201.458 188.975C201.455 188.976 201.451 188.975 201.448 188.974C201.445 188.973 201.442 188.971 201.439 188.969C201.437 188.967 201.435 188.964 201.434 188.961C201.432 188.958 201.431 188.954 201.431 188.951C201.43 188.944 201.431 188.937 201.434 188.931C201.438 188.925 201.444 188.921 201.45 188.919C202.352 188.613 203.179 188.119 203.876 187.469C204.486 186.905 204.924 186.178 205.138 185.373C205.314 184.6 205.27 183.793 205.012 183.044C204.879 182.621 204.693 182.218 204.457 181.844C203.779 180.818 202.769 180.058 201.598 179.692C200.294 179.279 198.902 179.239 197.578 179.579C198.845 179.291 199.978 178.582 200.794 177.567C201.52 176.68 201.931 175.575 201.962 174.428C201.993 173.28 201.642 172.154 200.965 171.229C200.347 170.344 199.457 169.685 198.431 169.355C197.405 169.024 196.3 169.039 195.284 169.397C194.194 169.766 193.239 170.453 192.542 171.372C193.121 170.229 193.335 168.935 193.156 167.665C192.989 166.433 192.424 165.291 191.548 164.413C190.642 163.539 189.479 162.981 188.232 162.823C187.018 162.645 185.781 162.903 184.738 163.552C184.112 163.983 183.584 164.541 183.186 165.19C182.789 165.838 182.531 166.563 182.43 167.318C182.172 169.049 182.583 170.813 183.58 172.249C183.589 172.259 183.593 172.273 183.593 172.286C183.593 172.3 183.589 172.313 183.58 172.324C183.57 172.333 183.556 172.338 183.542 172.338C183.529 172.338 183.515 172.333 183.505 172.324C182.989 171.946 182.403 171.673 181.782 171.523C181.16 171.372 180.516 171.347 179.884 171.447C179.28 171.515 178.699 171.72 178.185 172.045C177.671 172.37 177.236 172.807 176.914 173.325C176.591 173.842 176.39 174.425 176.323 175.032C176.257 175.638 176.328 176.252 176.532 176.827C176.724 177.483 177.053 178.091 177.496 178.61C177.939 179.13 178.486 179.55 179.102 179.843C178.323 179.679 177.52 179.671 176.738 179.82C175.956 179.968 175.211 180.27 174.546 180.709C173.318 181.516 172.477 182.745 172.3 184.039C172.176 185.231 172.504 186.426 173.219 187.385C173.989 188.468 175.096 189.263 176.365 189.645L175.111 189.677L173.857 189.71C173.035 189.731 172.224 189.916 171.473 190.252C170.722 190.589 170.044 191.071 169.478 191.67C168.912 192.27 168.47 192.975 168.176 193.747C167.882 194.518 167.743 195.34 167.765 196.166C167.786 196.992 167.969 197.806 168.304 198.561C168.639 199.317 169.119 199.998 169.717 200.567C170.315 201.136 171.018 201.581 171.788 201.876C172.557 202.171 173.377 202.311 174.2 202.288L179.362 202.148L184.523 202.011L184.952 219.1L185.381 236.19H194.828L194.372 218.974L193.917 201.758L199.078 201.621L204.24 201.484C205.063 201.462 205.873 201.277 206.624 200.941C207.375 200.604 208.053 200.123 208.619 199.523C209.185 198.923 209.627 198.218 209.921 197.446C210.215 196.675 210.355 195.853 210.332 195.028C210.31 194.202 210.126 193.389 209.791 192.635C209.456 191.881 208.976 191.2 208.378 190.632C207.781 190.064 207.078 189.62 206.31 189.325C205.541 189.03 204.722 188.89 203.9 188.913V188.908Z" fill="#666538"/>
<path d="M201.951 189.107H195.206C195.139 189.108 195.074 189.088 195.018 189.051C194.962 189.015 194.919 188.962 194.893 188.9C194.868 188.838 194.861 188.77 194.874 188.704C194.887 188.639 194.92 188.578 194.967 188.531C195.031 188.469 195.117 188.435 195.206 188.435H201.951C202.04 188.435 202.125 188.47 202.188 188.533C202.251 188.596 202.286 188.682 202.286 188.771C202.286 188.815 202.277 188.859 202.26 188.899C202.243 188.94 202.219 188.977 202.187 189.008C202.157 189.039 202.12 189.064 202.079 189.081C202.039 189.099 201.995 189.107 201.951 189.107Z" fill="#2B3D0A"/>
<path d="M193.909 201.75H188.878C189.75 202.923 190.619 204.097 191.486 205.271C192.353 206.446 193.222 207.62 194.094 208.792C194.065 207.62 194.035 206.446 194.003 205.271C193.97 204.097 193.939 202.923 193.909 201.75Z" fill="#353519"/>
<path d="M180.573 179.912H178.408C178.341 179.913 178.276 179.894 178.22 179.857C178.165 179.821 178.121 179.768 178.096 179.706C178.071 179.645 178.064 179.577 178.078 179.511C178.091 179.446 178.124 179.386 178.172 179.34C178.202 179.308 178.239 179.283 178.279 179.265C178.32 179.248 178.364 179.24 178.408 179.24H180.573C180.64 179.24 180.705 179.26 180.76 179.297C180.815 179.334 180.858 179.387 180.883 179.448C180.909 179.51 180.915 179.578 180.902 179.643C180.889 179.709 180.856 179.769 180.809 179.816C180.746 179.877 180.661 179.912 180.573 179.912Z" fill="#2B3D0A"/>
<path d="M192.1 172.37C192.067 172.374 192.033 172.374 192.001 172.37C191.967 172.359 191.935 172.343 191.907 172.321C191.87 172.297 191.839 172.264 191.816 172.227C191.792 172.189 191.777 172.147 191.77 172.104C191.762 172.06 191.763 172.016 191.773 171.973C191.782 171.93 191.801 171.889 191.826 171.853L192.172 171.364L192.518 170.872C192.543 170.835 192.575 170.805 192.613 170.781C192.65 170.758 192.691 170.742 192.735 170.735C192.778 170.728 192.822 170.729 192.865 170.739C192.908 170.749 192.949 170.768 192.984 170.794C193.02 170.818 193.051 170.85 193.074 170.887C193.098 170.924 193.114 170.965 193.121 171.009C193.136 171.097 193.116 171.188 193.065 171.262L192.719 171.751L192.373 172.241C192.342 172.287 192.3 172.324 192.25 172.348C192.202 172.367 192.151 172.375 192.1 172.37Z" fill="#2B3D0A"/>
<path d="M112.841 124.738L110.99 124.786L109.138 124.835C109.133 124.836 109.127 124.835 109.122 124.834C109.117 124.833 109.113 124.83 109.109 124.827C109.105 124.824 109.101 124.819 109.099 124.815C109.096 124.81 109.095 124.805 109.095 124.8C109.093 124.79 109.095 124.779 109.1 124.77C109.106 124.761 109.114 124.755 109.124 124.751C110.494 124.288 111.749 123.537 112.807 122.548C113.733 121.694 114.397 120.592 114.72 119.371C114.987 118.198 114.922 116.973 114.532 115.834C114.328 115.199 114.045 114.592 113.691 114.026C112.657 112.472 111.122 111.322 109.344 110.769C107.361 110.137 105.241 110.078 103.226 110.597C105.144 110.157 106.859 109.081 108.092 107.541C109.196 106.195 109.821 104.519 109.869 102.777C109.918 101.035 109.387 99.3267 108.36 97.9214C107.421 96.578 106.07 95.5792 104.514 95.0772C102.957 94.5751 101.279 94.5971 99.7362 95.1399C98.0815 95.6999 96.6318 96.7446 95.5742 98.1393C96.4515 96.4035 96.7771 94.4392 96.5068 92.5118C96.2541 90.6436 95.3973 88.9104 94.068 87.5784C92.6953 86.2478 90.9307 85.3985 89.0376 85.1574C87.2081 84.8903 85.3433 85.2769 83.7688 86.2495C81.8928 87.4546 80.6466 89.5663 80.2687 91.9684C79.8728 94.5897 80.4892 97.2637 81.9919 99.4439C82.006 99.4593 82.0139 99.4795 82.0139 99.5004C82.0139 99.5214 82.006 99.5415 81.9919 99.5569C81.9761 99.57 81.9562 99.5772 81.9356 99.5772C81.9151 99.5772 81.8952 99.57 81.8794 99.5569C81.097 98.9796 80.2085 98.5635 79.265 98.3326C78.3216 98.1018 77.342 98.0608 76.3827 98.2119C75.4987 98.3341 74.6496 98.6385 73.8885 99.1061C73.1275 99.5737 72.4711 100.194 71.9607 100.929C70.945 102.478 70.7386 104.496 71.2934 106.371C71.5869 107.366 72.0865 108.288 72.7593 109.076C73.4322 109.864 74.2633 110.5 75.1981 110.944C74.0181 110.697 72.8013 110.686 71.6172 110.912C70.433 111.138 69.3049 111.595 68.2971 112.259C66.4131 113.518 65.124 115.385 64.856 117.349C64.6255 119.057 65.1562 120.881 66.2523 122.427C67.4243 124.072 69.1097 125.277 71.0414 125.852L69.144 125.892L67.2412 125.943C65.9937 125.976 64.7648 126.256 63.6249 126.766C62.485 127.276 61.4564 128.006 60.5978 128.915C59.7392 129.824 59.0674 130.894 58.6208 132.064C58.1743 133.233 57.9617 134.48 57.9952 135.732C58.0632 138.26 59.1284 140.657 60.9565 142.398C62.7847 144.138 65.2264 145.078 67.745 145.013L75.5814 144.803L83.4177 144.593C83.817 174.57 84.1252 197.462 84.3316 212.862C84.5379 228.263 84.6451 236.182 84.6451 236.182H88.3489H99.1064C98.8759 226.156 98.6347 208.179 98.3908 190.202C98.147 172.225 97.9084 154.245 97.678 144.219L105.512 144.009L113.348 143.799C114.595 143.766 115.824 143.486 116.963 142.976C118.103 142.466 119.131 141.736 119.99 140.827C120.848 139.918 121.52 138.849 121.967 137.679C122.413 136.51 122.626 135.264 122.593 134.012C122.559 132.76 122.281 131.527 121.773 130.383C121.265 129.239 120.537 128.207 119.632 127.345C118.726 126.483 117.66 125.809 116.495 125.361C115.33 124.913 114.089 124.699 112.841 124.733V124.738Z" fill="#666538"/>
<path d="M77.921 111.049H74.638C74.5491 111.049 74.4639 111.013 74.4011 110.95C74.3383 110.887 74.303 110.801 74.303 110.712C74.3023 110.668 74.3104 110.624 74.327 110.583C74.3436 110.542 74.3682 110.504 74.3995 110.473C74.4308 110.442 74.468 110.417 74.5089 110.4C74.5499 110.383 74.5938 110.375 74.638 110.376H77.921C77.9652 110.375 78.0091 110.383 78.05 110.4C78.091 110.417 78.1282 110.442 78.1595 110.473C78.1907 110.504 78.2154 110.542 78.232 110.583C78.2486 110.624 78.2567 110.668 78.256 110.712C78.256 110.801 78.2207 110.887 78.1579 110.95C78.095 111.013 78.0098 111.049 77.921 111.049Z" fill="#2B3D0A"/>
<path d="M109.746 125.01H99.5057C99.4617 125.01 99.4182 125.001 99.3776 124.984C99.3371 124.967 99.3004 124.942 99.2699 124.91C99.2383 124.879 99.2133 124.843 99.1963 124.802C99.1792 124.761 99.1705 124.718 99.1707 124.673C99.1707 124.584 99.206 124.499 99.2688 124.436C99.3317 124.373 99.4169 124.337 99.5057 124.337H109.746C109.835 124.337 109.92 124.373 109.983 124.436C110.046 124.499 110.081 124.584 110.081 124.673C110.081 124.718 110.072 124.761 110.055 124.802C110.038 124.843 110.013 124.879 109.982 124.91C109.951 124.942 109.915 124.967 109.874 124.984C109.834 125.001 109.79 125.01 109.746 125.01Z" fill="#2B3D0A"/>
<path d="M221.773 177.067H226.476C225.715 177.874 224.839 178.853 223.906 180.004C222.973 181.155 221.976 182.476 220.979 183.972C220.258 185.048 219.353 186.425 218.436 188.08C217.395 189.939 216.52 191.887 215.82 193.901C214.941 196.447 214.374 199.091 214.132 201.774C213.951 203.971 213.897 206.176 213.969 208.378C213.999 211.007 214.269 213.627 214.773 216.206C215.259 218.615 215.522 221.063 215.558 223.52C215.589 225.993 215.424 228.464 215.062 230.91C214.789 232.762 214.408 234.596 213.92 236.403H209.439C210.076 234.499 210.578 232.553 210.943 230.579C211.419 227.986 211.638 225.352 211.597 222.716C211.558 220.403 211.281 218.099 210.771 215.843C210.229 213.319 209.938 210.747 209.9 208.166C209.828 206.053 209.879 203.938 210.053 201.831C210.305 198.998 210.881 196.205 211.771 193.505C212.43 191.516 213.248 189.583 214.215 187.724C215.038 186.143 215.799 184.924 216.308 184.117C217.187 182.723 218.139 181.376 219.16 180.082C220.087 178.917 220.977 177.911 221.773 177.067Z" fill="#F4ECE5"/>
<path d="M231.016 186.046L222.461 180.3L213.904 174.554C213.838 174.508 213.787 174.443 213.756 174.368C213.726 174.293 213.718 174.211 213.733 174.132C213.746 174.046 213.78 173.965 213.831 173.895C213.882 173.825 213.95 173.769 214.027 173.731L218.372 171.646L222.713 169.561C223.713 169.071 224.818 168.838 225.929 168.881C226.991 168.924 228.02 169.259 228.904 169.849C229.717 170.397 230.378 171.144 230.823 172.02C231.289 172.937 231.536 173.95 231.544 174.979L231.63 180.286L231.713 185.591C231.713 185.681 231.691 185.769 231.649 185.848C231.607 185.927 231.546 185.994 231.472 186.043C231.404 186.087 231.325 186.111 231.244 186.112C231.163 186.112 231.084 186.089 231.016 186.046Z" fill="#F98638"/>
<path d="M55.6931 176.752C55.1839 178.857 54.9692 181.024 55.0552 183.189C55.1374 185.359 55.5906 187.5 56.3952 189.516C56.9428 190.855 57.6636 192.116 58.5392 193.266C59.4094 194.417 60.4412 195.435 61.6025 196.289C62.8311 197.204 64.2634 197.804 65.7752 198.038C67.2886 198.234 68.8218 198.219 70.3312 197.995C71.4182 197.853 72.5223 197.93 73.5794 198.221C74.5832 198.501 75.5087 199.012 76.2835 199.711C76.9879 200.37 77.5254 201.188 77.8513 202.097C78.1828 203.004 78.3928 203.951 78.4758 204.913C78.5052 205.225 78.5508 206.796 78.5776 208.295C78.6044 209.793 78.6205 211.205 78.5776 211.205H83.4016C83.4016 211.205 83.4445 210.344 83.4498 209.142C83.465 207.768 83.4059 206.394 83.2729 205.026C83.1563 203.856 82.9429 202.697 82.6351 201.562C82.2209 200.071 81.5964 198.648 80.7806 197.336C80.2557 196.486 79.6183 195.713 78.8858 195.036C78.1553 194.356 77.3117 193.809 76.3934 193.422C75.3416 193.02 74.2222 192.826 73.097 192.851C71.9714 192.851 70.8324 192.954 69.7229 192.997C68.5877 193.046 67.4522 192.907 66.3621 192.585C65.2762 192.264 64.2712 191.714 63.4141 190.971C60.7341 188.615 60.0802 185.268 60.3107 181.793C60.5412 178.317 61.6507 174.702 62.4949 171.813C62.9041 170.391 63.3677 168.843 63.8858 167.17C64.4004 165.502 64.9712 163.716 65.5984 161.828L63.1328 160.935L60.6671 160.042C60.0293 161.835 59.404 163.682 58.7911 165.583C58.1783 167.484 57.5968 169.448 57.0465 171.477C56.7999 172.373 56.5632 173.264 56.3363 174.148C56.1094 175.032 55.895 175.9 55.6931 176.752Z" fill="#BAB653"/>
<path d="M60.4554 180.141C60.6341 179.343 60.8065 178.544 60.9727 177.744C61.1442 176.937 61.3184 176.147 61.4899 175.348C61.5114 175.267 61.5274 175.2 61.5435 175.143C61.5596 175.087 61.5703 175.036 61.581 174.987C61.6105 174.869 61.6507 174.718 61.7124 174.49C61.774 174.261 61.8544 173.976 61.9616 173.596C62.4199 171.982 62.8353 170.605 63.1354 169.613C63.4356 168.62 63.6178 168.025 63.6178 168.025C63.8858 167.181 64.178 166.234 64.5076 165.193C64.8372 164.152 65.1964 163.022 65.5796 161.809L63.114 160.916L60.6484 160.023C60.166 161.33 59.7318 162.546 59.3513 163.646C58.9707 164.746 58.6384 165.734 58.357 166.589C58.298 166.769 57.7406 168.472 57.1028 170.74C56.3929 173.174 55.8123 175.644 55.3634 178.14C55.275 178.678 55.1946 179.275 55.133 179.902C55.0713 180.529 55.0338 181.198 55.0284 181.919C55.0284 182.382 55.0284 182.81 55.0499 183.189C55.0713 183.568 55.0874 183.905 55.1115 184.182L57.7781 182.161L60.4554 180.141Z" fill="#666538"/>
<path d="M64.1378 192.994C62.9327 191.776 61.3468 191.01 59.6461 190.826C58.4189 190.673 57.1731 190.816 56.012 191.243C55.9664 191.065 55.9155 190.89 55.8566 190.705C55.5904 189.912 55.1643 189.183 54.6049 188.562C54.0454 187.942 53.3646 187.444 52.605 187.099C51.8453 186.755 51.0231 186.571 50.1895 186.56C49.356 186.548 48.5291 186.709 47.7603 187.033C47.3512 187.203 46.9598 187.413 46.5918 187.66C46.104 186.442 45.2091 185.433 44.0609 184.806C42.9126 184.179 41.5826 183.972 40.2992 184.222C39.6687 184.341 39.0709 184.595 38.5462 184.965C38.0215 185.336 37.582 185.815 37.2572 186.37C36.9324 186.926 36.7299 187.544 36.6634 188.185C36.5969 188.825 36.6678 189.473 36.8714 190.083C37.3017 191.388 38.1902 192.492 39.3712 193.188C40.5522 193.884 41.9451 194.125 43.29 193.866C43.3812 193.847 43.4696 193.82 43.558 193.796C43.5946 194.405 43.7146 195.007 43.9145 195.584C44.1789 196.377 44.6029 197.106 45.1603 197.726C45.7177 198.347 46.3965 198.846 47.1543 199.191C47.9121 199.537 48.7327 199.723 49.565 199.736C50.3973 199.75 51.2235 199.591 51.992 199.27C52.3912 199.106 52.7736 198.903 53.1337 198.665C53.3379 198.982 53.5721 199.28 53.8332 199.552C55.0543 200.751 56.6347 201.512 58.3302 201.719C60.0257 201.926 61.7418 201.566 63.2132 200.695C64.5317 199.856 65.4402 198.584 65.6252 197.08C65.8101 195.576 65.2178 194.124 64.1378 192.994Z" fill="#BAB653"/>
<path d="M61.8383 196.612H61.8115H61.782C60.5037 196.386 59.2253 196.125 57.955 195.829C56.6847 195.533 55.4224 195.208 54.1789 194.85C51.1875 193.991 48.2525 192.946 45.3912 191.719C42.5121 190.483 39.7107 189.071 37.0028 187.493C36.926 187.448 36.8701 187.375 36.8473 187.289C36.8309 187.224 36.8337 187.156 36.8553 187.094C36.8769 187.031 36.9165 186.976 36.969 186.935C37.0216 186.895 37.0848 186.871 37.1508 186.866C37.2169 186.862 37.2828 186.877 37.3404 186.909C42.6948 190.031 48.4125 192.478 54.3638 194.194C55.5966 194.549 56.8482 194.872 58.1158 195.165C59.3834 195.458 60.643 195.716 61.908 195.94C61.9956 195.956 62.0734 196.006 62.1251 196.079C62.1751 196.153 62.1944 196.242 62.1787 196.33C62.1632 196.406 62.1219 196.474 62.0618 196.523C62.0017 196.572 61.9265 196.599 61.849 196.599L61.8383 196.612Z" fill="#666538"/>
<path d="M78.39 145.927C85.9154 140.741 88.2068 136.127 86.9044 134.239C85.6019 132.351 80.7028 133.182 73.8474 138.885C77.9317 130.597 77.4466 125.558 75.1124 124.991C72.7781 124.423 68.5973 128.329 65.2955 137.93C64.7595 127.667 61.7445 122.761 59.3325 122.774C56.9205 122.788 55.0981 127.718 56.9366 137.133C51.7669 129.58 47.168 127.28 45.292 128.582C43.416 129.884 44.2388 134.807 49.9204 141.685C41.6633 137.585 36.6436 138.075 36.0782 140.418C35.5127 142.761 39.404 146.955 48.969 150.269C38.7448 150.807 33.8564 153.833 33.8698 156.257C33.8832 158.68 38.7957 160.504 48.1757 158.661C40.6529 163.848 38.3615 168.461 39.664 170.352C40.9665 172.243 45.8655 171.407 52.7183 165.704C48.634 173.992 49.1217 179.033 51.456 179.598C53.7903 180.163 57.9684 176.259 61.2728 166.659C61.8088 176.921 64.8212 181.828 67.2358 181.817C69.6505 181.806 71.4676 176.87 69.6318 167.455C74.8015 175.009 79.395 177.309 81.279 175.999C83.1631 174.689 82.3323 169.777 76.6507 162.896C84.9078 166.995 89.9274 166.506 90.4929 164.165C91.0584 161.825 87.1643 157.634 77.5967 154.32C87.8236 153.782 92.7119 150.756 92.6985 148.332C92.6851 145.908 87.77 144.084 78.39 145.927Z" fill="#F98638"/>
<path d="M69.144 153.556C68.8891 155.082 68.115 156.471 66.9537 157.489C65.7924 158.506 64.3157 159.087 62.7751 159.134C61.2345 159.181 59.7254 158.69 58.5049 157.746C57.2844 156.801 56.4279 155.461 56.0814 153.953C55.7349 152.446 55.9198 150.864 56.6046 149.479C57.2894 148.093 58.4317 146.988 59.837 146.352C61.2423 145.717 62.8236 145.59 64.3115 145.994C65.7994 146.398 67.1018 147.307 67.997 148.566C68.507 149.28 68.8709 150.089 69.0678 150.946C69.2647 151.802 69.2906 152.689 69.144 153.556Z" fill="#DEB8FC"/>
<path d="M220.234 256.448H128.637H37.0376V246.312V236.177H128.637H220.234V246.312V256.448Z" fill="#666538"/>
<path d="M62.8219 184.114L54.7363 210.156L46.6508 236.198H79.5022L71.4166 210.156L63.3284 184.114C63.3115 184.06 63.278 184.013 63.2328 183.979C63.1876 183.945 63.1329 183.927 63.0765 183.926C63.0196 183.926 62.9643 183.945 62.9186 183.978C62.8728 184.012 62.8389 184.06 62.8219 184.114Z" fill="#666538"/>
<path d="M70.8753 236.182C73.3677 232.074 74.1368 227.708 73.491 223.84C72.8451 219.972 70.7922 216.601 67.6298 214.482C65.2241 212.928 62.4829 211.976 59.6354 211.703C56.5694 211.404 53.3213 211.897 50.5234 213.688C48.2685 215.134 46.5637 217.299 45.6833 219.835C45.2 221.163 44.9286 222.559 44.8793 223.972C44.009 223.804 43.1193 223.76 42.2368 223.843C40.578 223.955 39.0077 224.635 37.788 225.769C36.496 227.047 35.716 228.757 35.5958 230.573C35.4506 232.551 35.9572 234.522 37.0376 236.182H70.8753Z" fill="#BAB653"/>
<path d="M186.651 236.182C185.063 235.364 183.825 233.995 183.167 232.33C182.537 230.795 182.53 229.074 183.149 227.534C183.653 226.362 184.507 225.375 185.593 224.709C186.732 224.001 188.045 223.623 189.385 223.614C188.902 222.366 188.59 221.057 188.458 219.725C188.246 217.597 188.458 214.939 190.122 212.65C191.928 210.154 194.946 208.768 197.998 208.583C201.051 208.397 204.162 209.39 206.17 211.69C207.968 213.745 208.41 216.3 208.391 218.388C208.38 219.702 208.192 221.009 207.831 222.272C209.973 220.886 212.563 220.377 215.067 220.849C216.242 221.06 217.365 221.501 218.37 222.147C219.375 222.793 220.244 223.632 220.926 224.615C222.046 226.306 222.583 228.319 222.453 230.345C222.331 232.472 221.56 234.51 220.245 236.182H186.651Z" fill="#BAB653"/>
<path d="M127.244 109.881C115.42 130.931 103.596 151.981 91.7739 173.029L56.3014 236.182H87.6146C88.8179 234.127 90.45 231.254 92.3072 227.698C94.1645 224.142 96.2468 219.897 98.3506 215.092C107.097 195.076 114.341 174.431 120.021 153.33C124.534 136.536 126.651 124.509 127.321 120.173C127.327 120.129 127.348 120.089 127.381 120.06C127.414 120.031 127.456 120.015 127.5 120.015C127.543 120.015 127.586 120.031 127.619 120.06C127.651 120.089 127.673 120.129 127.678 120.173C128.696 129.408 129.969 137.86 131.328 145.438C132.687 153.015 134.129 159.713 135.482 165.435C140.065 184.787 146.288 200.287 151.921 211.614C157.555 222.942 162.601 230.1 164.836 232.766C165.455 233.503 166.026 234.167 166.53 234.738C167.034 235.308 167.462 235.789 167.803 236.163H183.733H199.665L163.952 173.04L128.238 109.881C128.188 109.793 128.116 109.719 128.029 109.668C127.941 109.617 127.842 109.59 127.741 109.59C127.64 109.59 127.54 109.617 127.453 109.668C127.366 109.719 127.293 109.793 127.244 109.881Z" fill="#F4ECE5"/>
<path d="M194.268 235.913C194.242 235.916 194.216 235.916 194.19 235.913C194.164 235.907 194.139 235.898 194.115 235.886C191.623 234.611 189.182 233.242 186.793 231.779C184.405 230.315 182.082 228.769 179.825 227.141C164.772 216.228 154.049 202.509 146.408 188.531C138.768 174.554 134.228 160.297 131.513 148.354C131.502 148.308 131.5 148.261 131.507 148.215C131.514 148.168 131.531 148.124 131.556 148.085C131.591 148.028 131.642 147.983 131.703 147.956C131.764 147.929 131.831 147.92 131.896 147.931C131.962 147.943 132.023 147.973 132.071 148.019C132.119 148.065 132.152 148.124 132.167 148.189C134.868 160.077 139.403 174.245 147.001 188.155C154.598 202.065 165.262 215.738 180.23 226.576C182.463 228.19 184.767 229.727 187.142 231.187C189.511 232.637 191.944 234 194.418 235.267C194.457 235.287 194.492 235.314 194.521 235.347C194.55 235.38 194.571 235.419 194.584 235.461C194.6 235.505 194.606 235.551 194.603 235.598C194.6 235.644 194.587 235.689 194.565 235.73C194.537 235.786 194.493 235.833 194.439 235.865C194.388 235.897 194.328 235.913 194.268 235.913Z" fill="#F98638"/>
<path d="M61.7633 236.233C61.6971 236.232 61.6325 236.212 61.5773 236.176C61.5222 236.139 61.4788 236.087 61.4524 236.026C61.4336 235.984 61.4239 235.938 61.4239 235.891C61.4239 235.845 61.4336 235.799 61.4524 235.757C61.4867 235.674 61.5522 235.608 61.6346 235.574C64.3339 234.461 66.9626 233.183 69.5058 231.746C72.0286 230.329 74.4614 228.756 76.79 227.036C78.666 225.64 82.0964 223.09 87.041 216.841C91.9856 210.592 98.4444 200.647 106.377 184.459C109.229 178.643 111.925 172.682 114.449 166.621C116.974 160.561 119.33 154.398 121.495 148.179C121.524 148.095 121.585 148.027 121.664 147.988C121.705 147.967 121.75 147.955 121.797 147.952C121.843 147.95 121.889 147.957 121.932 147.974C121.973 147.988 122.012 148.01 122.045 148.039C122.077 148.068 122.104 148.104 122.122 148.144C122.143 148.185 122.155 148.23 122.158 148.276C122.161 148.323 122.154 148.369 122.138 148.413C119.968 154.645 117.609 160.819 115.079 166.89C112.549 172.962 109.845 178.936 106.988 184.768C99.9265 199.178 94.0921 208.685 89.2172 215.187C84.3423 221.688 80.4134 225.153 77.184 227.574C74.8347 229.319 72.3795 230.915 69.8328 232.354C67.2648 233.804 64.6112 235.095 61.8866 236.22L61.8222 236.238L61.7633 236.233Z" fill="#F98638"/>
<path d="M135.482 165.578C134.142 159.843 132.687 153.128 131.328 145.532C129.969 137.935 128.696 129.464 127.681 120.211C127.675 120.166 127.654 120.126 127.62 120.096C127.587 120.066 127.544 120.05 127.5 120.05C127.455 120.05 127.412 120.066 127.379 120.096C127.346 120.126 127.324 120.166 127.319 120.211C124.971 135.446 121.632 150.509 117.322 165.306C112.321 182.462 105.979 199.196 98.356 215.351C96.6229 219.016 94.8586 222.581 93.063 226.046C91.2674 229.511 89.4513 232.89 87.6146 236.182H167.717C167.283 235.736 166.822 235.254 166.34 234.74C165.857 234.226 165.356 233.68 164.836 233.102C161.558 229.446 156.836 223.641 151.624 213.21C146.411 202.778 140.713 187.722 135.482 165.578Z" fill="#353519"/>
<path d="M131.475 156.827C131.977 156.512 132.505 156.157 133.051 155.751C133.598 155.345 134.163 154.898 134.734 154.406C135.49 153.744 136.206 153.038 136.878 152.292C137.5 151.6 138.031 150.947 138.486 150.32L139.984 156.558C140.485 158.64 140.985 160.722 141.485 162.804L136.482 159.813L131.475 156.827Z" fill="#DEB8FC"/>
<path d="M117.435 161.723C118.094 161.663 118.804 161.577 119.557 161.454C120.311 161.33 121.104 161.185 121.935 160.975C122.765 160.765 123.612 160.531 124.365 160.281C125.118 160.031 125.81 159.77 126.442 159.509C126.126 161.616 125.809 163.721 125.491 165.825C125.173 167.929 124.855 170.033 124.537 172.138L120.986 166.928L117.435 161.723Z" fill="#F4ECE5"/>
<path d="M102.175 159.159C102.816 159.404 103.491 159.646 104.204 159.877C104.917 160.109 105.67 160.335 106.455 160.545C107.326 160.776 108.167 160.972 108.977 161.139C109.786 161.306 110.558 161.438 111.295 161.548L107.698 166.301L104.105 171.057L103.14 165.109L102.175 159.159Z" fill="#F98638"/>
<path d="M115.192 133.155L114.766 139.676C114.621 141.849 114.478 144.023 114.337 146.196L118.724 141.779L123.106 137.36C122.302 137.064 121.458 136.717 120.571 136.305C119.683 135.893 118.762 135.415 117.818 134.863C117.338 134.58 116.879 134.296 116.443 134.013C116.007 133.73 115.59 133.444 115.192 133.155Z" fill="#DEB8FC"/>
<path d="M129.013 139.017C129.607 140.923 130.204 142.83 130.803 144.738C131.401 146.646 131.998 148.553 132.593 150.457L135.045 145.034L137.497 139.611C136.852 139.635 136.157 139.649 135.447 139.638C134.737 139.627 133.979 139.6 133.193 139.544C132.408 139.487 131.695 139.415 130.998 139.326C130.302 139.237 129.637 139.13 129.013 139.017Z" fill="#F98638"/>
<path d="M199.66 236.204L196.892 236.182H194.118V222.078H199.66V236.204Z" fill="#AD4D4D"/>
<path d="M61.8678 236.177H59.094H56.3229V229.29V222.401H59.094H61.8678V229.29V236.177Z" fill="#AD4D4D"/>
<path d="M115.034 162.137C111.685 162.128 108.358 161.608 105.166 160.593C103.361 160.034 101.613 159.307 99.9426 158.422C99.8644 158.379 99.8063 158.307 99.7812 158.221C99.7561 158.136 99.7659 158.043 99.8086 157.965C99.8512 157.886 99.9232 157.828 100.009 157.803C100.094 157.778 100.186 157.788 100.264 157.83C103.093 159.282 106.122 160.304 109.25 160.862C114.152 161.774 120.546 161.839 127.206 158.81C132.284 156.492 136.606 152.783 139.676 148.109C141.547 145.307 142.974 142.232 143.908 138.992C139.886 139.929 135.735 140.178 131.631 139.729C128.54 139.386 125.506 138.643 122.605 137.518C120.48 136.698 118.44 135.673 116.513 134.457C115.726 133.97 114.972 133.431 114.256 132.843C114.19 132.785 114.148 132.703 114.139 132.614C114.133 132.525 114.162 132.438 114.219 132.37C114.247 132.336 114.282 132.308 114.321 132.287C114.36 132.267 114.403 132.255 114.447 132.251C114.491 132.248 114.535 132.253 114.577 132.267C114.619 132.281 114.657 132.303 114.691 132.332C114.752 132.383 117.783 134.925 122.983 136.921C129.785 139.539 137.227 139.99 144.294 138.212L144.562 138.145L144.83 138.08L144.763 138.349L144.696 138.618C143.841 141.841 142.5 144.912 140.719 147.727C138.022 152.131 134.245 155.768 129.75 158.289C125.254 160.811 120.189 162.134 115.039 162.132L115.034 162.137Z" fill="#666538"/>
<path d="M128.404 236.513C128.325 236.513 128.248 236.485 128.187 236.435C128.127 236.382 128.086 236.31 128.072 236.23L127.568 233.204L127.072 230.175C127.065 230.132 127.066 230.087 127.076 230.044C127.086 230.001 127.105 229.961 127.131 229.925C127.157 229.889 127.189 229.858 127.226 229.835C127.263 229.811 127.305 229.795 127.348 229.788C127.392 229.78 127.436 229.782 127.479 229.792C127.522 229.802 127.562 229.821 127.597 229.847C127.67 229.899 127.719 229.977 127.734 230.065L128.227 233.094L128.723 236.123C128.731 236.166 128.729 236.211 128.719 236.254C128.709 236.297 128.69 236.337 128.664 236.373C128.639 236.409 128.606 236.44 128.569 236.463C128.532 236.487 128.49 236.503 128.447 236.51H128.393L128.404 236.513Z" fill="#2B3D0A"/>
<path d="M223.34 146.519L208.365 143.872L193.391 141.225C193.275 141.201 193.168 141.145 193.083 141.063C192.998 140.98 192.937 140.875 192.909 140.76C192.876 140.638 192.873 140.51 192.901 140.386C192.928 140.263 192.986 140.148 193.067 140.052L197.685 134.718L202.302 129.389C203.367 128.143 204.723 127.181 206.247 126.589C207.709 126.023 209.297 125.866 210.841 126.134C212.264 126.389 213.6 126.999 214.727 127.907C215.895 128.852 216.831 130.055 217.461 131.423L220.741 138.457L224.024 145.491C224.077 145.611 224.1 145.741 224.09 145.872C224.08 146.002 224.037 146.127 223.965 146.237C223.9 146.34 223.806 146.422 223.695 146.472C223.584 146.522 223.461 146.538 223.34 146.519Z" fill="#F98638"/>
<path d="M153.237 242.947C153.19 242.947 153.143 242.937 153.1 242.918C153.056 242.897 153.017 242.867 152.985 242.829C152.763 242.56 152.551 242.307 152.347 242.022C152.144 241.737 151.951 241.468 151.766 241.18C151.581 240.892 151.415 240.607 151.254 240.311C151.093 240.015 150.943 239.714 150.804 239.407C150.77 239.325 150.77 239.234 150.804 239.152C150.819 239.11 150.842 239.072 150.872 239.04C150.902 239.007 150.938 238.981 150.978 238.963C151.019 238.945 151.062 238.935 151.106 238.933C151.15 238.932 151.194 238.939 151.235 238.955C151.277 238.97 151.315 238.993 151.347 239.023C151.379 239.054 151.405 239.09 151.423 239.13C151.554 239.421 151.691 239.709 151.851 239.991C152.012 240.274 152.168 240.548 152.339 240.817C152.511 241.086 152.698 241.355 152.891 241.624C153.084 241.893 153.288 242.138 153.5 242.382C153.557 242.451 153.586 242.538 153.58 242.627C153.573 242.716 153.532 242.798 153.465 242.856C153.434 242.883 153.399 242.903 153.36 242.918C153.321 242.935 153.28 242.945 153.237 242.947Z" fill="#AD4D4D"/>
<path d="M161.004 245.452C160.97 245.452 160.937 245.446 160.905 245.435C160.871 245.425 160.839 245.41 160.811 245.39C160.294 245.019 159.783 244.635 159.278 244.238C158.777 243.843 158.281 243.431 157.798 243.017C157.179 242.479 156.568 241.922 155.976 241.344C155.384 240.766 154.805 240.171 154.25 239.561C154.22 239.528 154.196 239.49 154.181 239.449C154.166 239.407 154.159 239.363 154.162 239.318C154.165 239.229 154.204 239.145 154.269 239.084C154.335 239.025 154.422 238.994 154.51 238.998C154.599 239.002 154.683 239.041 154.743 239.106C155.29 239.707 155.856 240.291 156.442 240.86C157.028 241.428 157.627 241.978 158.238 242.509C158.712 242.918 159.197 243.316 159.693 243.711C160.189 244.107 160.69 244.478 161.199 244.841C161.246 244.875 161.283 244.92 161.308 244.973C161.332 245.025 161.342 245.083 161.338 245.141C161.334 245.199 161.315 245.254 161.283 245.302C161.251 245.351 161.208 245.39 161.156 245.417C161.109 245.439 161.056 245.451 161.004 245.452Z" fill="#AD4D4D"/>
<path d="M164.072 244.147C164.041 244.146 164.009 244.142 163.978 244.134C163.947 244.124 163.918 244.11 163.89 244.093L163.4 243.765L162.92 243.429C162.92 243.429 162.652 243.249 162.298 242.98C161.944 242.711 161.454 242.342 160.988 241.963C160.125 241.261 159.278 240.47 158.576 239.789C157.873 239.109 157.348 238.544 157.112 238.291C157.082 238.259 157.058 238.222 157.043 238.181C157.027 238.139 157.02 238.096 157.021 238.052C157.023 237.985 157.045 237.92 157.084 237.865C157.122 237.811 157.176 237.769 157.239 237.746C157.301 237.723 157.369 237.719 157.434 237.734C157.499 237.75 157.558 237.784 157.603 237.834C157.833 238.081 158.361 238.641 159.042 239.308C159.723 239.975 160.553 240.752 161.398 241.441C161.856 241.812 162.328 242.17 162.684 242.436C163.04 242.703 163.29 242.877 163.292 242.88L163.767 243.208L164.246 243.528C164.32 243.578 164.372 243.654 164.391 243.741C164.4 243.784 164.4 243.829 164.392 243.872C164.384 243.915 164.367 243.957 164.343 243.994C164.313 244.042 164.27 244.081 164.22 244.107C164.174 244.132 164.124 244.146 164.072 244.147Z" fill="#AD4D4D"/>
<path d="M162.287 239.547C162.249 239.547 162.211 239.541 162.175 239.528C162.138 239.514 162.103 239.494 162.073 239.469C161.928 239.348 161.784 239.222 161.644 239.093C161.505 238.963 161.376 238.824 161.231 238.694C160.933 238.395 160.652 238.08 160.387 237.75C160.122 237.419 159.874 237.074 159.645 236.717C159.596 236.643 159.579 236.552 159.597 236.464C159.617 236.377 159.669 236.301 159.744 236.252C159.819 236.204 159.909 236.188 159.996 236.206C160.083 236.225 160.159 236.277 160.208 236.351C160.424 236.69 160.658 237.016 160.91 237.328C161.162 237.64 161.43 237.938 161.714 238.221C161.84 238.35 161.982 238.474 162.102 238.598C162.223 238.721 162.37 238.837 162.51 238.953C162.544 238.981 162.572 239.015 162.593 239.054C162.613 239.093 162.626 239.136 162.63 239.18C162.634 239.224 162.629 239.269 162.616 239.311C162.603 239.353 162.581 239.392 162.553 239.426C162.521 239.465 162.481 239.497 162.435 239.518C162.388 239.538 162.338 239.548 162.287 239.547Z" fill="#AD4D4D"/>
<path d="M142.922 213.131C142.839 213.131 142.759 213.101 142.697 213.045C142.635 212.99 142.597 212.913 142.589 212.83L142.024 207.437L141.461 202.057C141.455 201.992 141.467 201.926 141.498 201.868C141.528 201.81 141.574 201.762 141.632 201.731C141.689 201.699 141.754 201.685 141.819 201.691C141.884 201.696 141.946 201.72 141.997 201.761C142.032 201.788 142.06 201.823 142.081 201.861C142.103 201.9 142.116 201.943 142.12 201.987L142.683 207.367L143.246 212.747C143.251 212.791 143.247 212.835 143.234 212.878C143.222 212.92 143.201 212.96 143.174 212.994C143.146 213.029 143.112 213.057 143.073 213.078C143.035 213.099 142.992 213.111 142.949 213.115H142.914L142.922 213.131Z" fill="#2B3D0A"/>
<path d="M122.026 73.8754L79.5638 71.8068L37.0992 69.7409C36.9733 69.735 36.8498 69.7042 36.7357 69.6503C36.6217 69.5964 36.5194 69.5204 36.4347 69.4266C36.3501 69.3329 36.2847 69.2233 36.2423 69.1041C36.2 68.9849 36.1815 68.8585 36.188 68.7321C36.7467 57.1786 41.8548 46.3209 50.3889 38.5476C58.9229 30.7742 70.1838 26.7219 81.6944 27.2819H81.74C87.4398 27.5589 93.0295 28.9601 98.1898 31.4055C103.35 33.8509 107.98 37.2926 111.815 41.5341C115.65 45.7756 118.615 50.7338 120.541 56.1256C122.467 61.5173 123.315 67.2371 123.039 72.9581C123.026 73.2129 122.913 73.4521 122.724 73.6235C122.536 73.7948 122.288 73.8844 122.034 73.8727L122.026 73.8754Z" fill="#F98638"/>
<path d="M76.1415 55.6481H76.0906C76.0026 55.6423 75.9167 55.6189 75.838 55.5792C75.7592 55.5394 75.6893 55.4842 75.6323 55.4167C75.5747 55.3497 75.5309 55.272 75.5033 55.188C75.4757 55.104 75.4649 55.0153 75.4715 54.9271L76.4443 41.9452L77.4172 28.9606L67.536 35.5968L57.6629 42.233C57.5898 42.2827 57.5076 42.3172 57.4212 42.3348C57.3347 42.3523 57.2456 42.3525 57.159 42.3352C56.9857 42.299 56.833 42.1968 56.7329 42.0501C56.6839 41.9766 56.65 41.894 56.6329 41.8072C56.6159 41.7204 56.6162 41.6311 56.6338 41.5444C56.6504 41.4577 56.6841 41.3753 56.7329 41.3018C56.7817 41.2284 56.8446 41.1655 56.9178 41.1167L66.8017 34.4724L76.6855 27.8281C76.8665 27.6545 77.0958 27.5402 77.343 27.5003C77.5901 27.4605 77.8435 27.4969 78.0696 27.6048C78.2957 27.7127 78.4838 27.887 78.6089 28.1046C78.7341 28.3223 78.7905 28.5729 78.7706 28.8234L77.7897 41.9237L76.8088 55.024C76.796 55.1929 76.7201 55.3507 76.5964 55.4659C76.4727 55.5811 76.3102 55.6452 76.1415 55.6454V55.6481Z" fill="#AD4D4D"/>
<path d="M96.7668 49.5444C96.6745 49.5443 96.5832 49.5251 96.4988 49.4879C96.4113 49.4488 96.3328 49.392 96.2683 49.3211L86.8883 38.814L77.5083 28.3041L77.712 27.8092L77.913 27.3142L78.2238 27.4137L78.532 27.5106L89.1073 31.4541L99.696 35.3977C99.8627 35.4597 99.998 35.5857 100.072 35.7479C100.146 35.9101 100.153 36.0952 100.091 36.2625C100.029 36.4298 99.9039 36.5656 99.7423 36.64C99.5808 36.7144 99.3964 36.7213 99.2297 36.6593L89.8979 33.1784L80.5688 29.6975L88.917 39.0614L97.2652 48.4199C97.3243 48.4855 97.3699 48.5621 97.3994 48.6454C97.4288 48.7288 97.4415 48.8171 97.4368 48.9054C97.4321 48.9936 97.41 49.0801 97.3718 49.1598C97.3336 49.2394 97.2801 49.3107 97.2143 49.3695C97.1523 49.4254 97.0806 49.4692 97.0026 49.4986C96.9275 49.5285 96.8475 49.5441 96.7668 49.5444Z" fill="#AD4D4D"/>
<path d="M162.29 239.362L162.022 239.152L161.848 239.009C161.91 239.085 161.98 239.153 162.057 239.214C162.13 239.271 162.208 239.32 162.29 239.362Z" fill="#AD4D4D"/>
<path d="M125.486 179.181C125.46 179.31 125.385 179.424 125.277 179.498C125.167 179.572 125.033 179.599 124.904 179.574C124.84 179.562 124.779 179.537 124.725 179.501C124.67 179.465 124.624 179.418 124.588 179.364C124.515 179.254 124.488 179.121 124.513 178.992C124.538 178.863 124.613 178.749 124.722 178.675C124.831 178.602 124.963 178.576 125.092 178.6C125.22 178.625 125.334 178.699 125.408 178.807C125.482 178.916 125.51 179.051 125.486 179.181Z" fill="#353519"/>
<path d="M129.106 179.517C129.08 179.646 129.005 179.76 128.897 179.835C128.816 179.889 128.721 179.919 128.623 179.919C128.525 179.92 128.429 179.891 128.348 179.837C128.266 179.783 128.202 179.706 128.164 179.615C128.126 179.525 128.115 179.425 128.133 179.329C128.143 179.263 128.167 179.199 128.202 179.142C128.237 179.085 128.283 179.035 128.338 178.997C128.392 178.958 128.454 178.931 128.519 178.916C128.585 178.902 128.652 178.902 128.718 178.914C128.783 178.927 128.846 178.953 128.901 178.99C128.956 179.028 129.004 179.076 129.04 179.133C129.076 179.189 129.101 179.252 129.112 179.318C129.124 179.384 129.122 179.452 129.106 179.517Z" fill="#353519"/>
<path d="M61.8678 222.401C61.8678 222.721 61.5569 223.012 61.0638 223.222C59.7956 223.674 58.4111 223.674 57.143 223.222C56.6418 223.012 56.339 222.721 56.339 222.401C56.339 222.081 56.6498 221.79 57.143 221.594C58.4105 221.139 59.7963 221.139 61.0638 221.594C61.5569 221.79 61.8678 222.081 61.8678 222.401Z" fill="#353519"/>
<path d="M199.66 222.078C199.66 222.401 199.349 222.692 198.856 222.902C197.587 223.354 196.202 223.354 194.932 222.902C194.431 222.692 194.128 222.401 194.128 222.078C194.128 221.756 194.439 221.468 194.932 221.258C196.202 220.806 197.587 220.806 198.856 221.258C199.354 221.468 199.66 221.758 199.66 222.078Z" fill="#353519"/>
<path d="M83.1148 120.049C83.1138 121.016 82.779 121.952 82.1676 122.698C81.5561 123.444 80.7059 123.955 79.7615 124.143C78.8172 124.33 77.8372 124.184 76.9885 123.728C76.1397 123.272 75.4748 122.534 75.1068 121.642C74.7388 120.749 74.6906 119.755 74.9704 118.831C75.2502 117.906 75.8406 117.108 76.6411 116.571C77.4417 116.034 78.4028 115.793 79.3609 115.887C80.3189 115.982 81.2146 116.407 81.8954 117.09C82.2829 117.479 82.5902 117.94 82.7994 118.448C83.0087 118.956 83.1159 119.5 83.1148 120.049Z" fill="#DEB8FC"/>
<path d="M99.3985 133.155C99.3986 134.123 99.0644 135.061 98.4529 135.809C97.8414 136.557 96.9904 137.069 96.0448 137.258C95.0993 137.447 94.1178 137.301 93.2675 136.845C92.4171 136.389 91.7506 135.651 91.3814 134.757C91.0122 133.863 90.9632 132.869 91.2428 131.942C91.5223 131.016 92.1131 130.216 92.9145 129.678C93.7159 129.14 94.6783 128.898 95.6377 128.992C96.5972 129.087 97.4944 129.512 98.1764 130.196C98.5648 130.584 98.8727 131.045 99.0825 131.553C99.2922 132.061 99.3997 132.605 99.3985 133.155Z" fill="#DEB8FC"/>
<path d="M103.716 109.168C103.715 110.135 103.38 111.071 102.769 111.817C102.157 112.563 101.307 113.074 100.363 113.262C99.4183 113.449 98.4383 113.303 97.5896 112.847C96.7409 112.391 96.0759 111.653 95.708 110.76C95.34 109.868 95.2918 108.874 95.5715 107.95C95.8513 107.025 96.4417 106.226 97.2423 105.69C98.0428 105.153 99.004 104.911 99.962 105.006C100.92 105.101 101.816 105.526 102.497 106.209C102.884 106.598 103.191 107.059 103.401 107.567C103.61 108.074 103.717 108.619 103.716 109.168Z" fill="#DEB8FC"/>
<path d="M217.002 139.431C216.922 139.687 216.783 139.922 216.597 140.116C216.411 140.309 216.183 140.457 215.93 140.547C215.341 140.76 214.701 140.784 214.098 140.616C213.494 140.448 212.958 140.097 212.562 139.611C212.385 139.408 212.262 139.165 212.202 138.903C212.143 138.641 212.149 138.368 212.22 138.108C212.291 137.849 212.425 137.612 212.61 137.417C212.795 137.223 213.025 137.077 213.28 136.994C213.87 136.777 214.514 136.75 215.12 136.918C215.726 137.086 216.265 137.44 216.662 137.93C216.83 138.136 216.949 138.38 217.008 138.64C217.067 138.9 217.065 139.171 217.002 139.431Z" fill="#AD4D4D"/>
<path d="M219.854 142.984C219.806 143.14 219.722 143.283 219.609 143.401C219.497 143.519 219.359 143.61 219.205 143.665C218.844 143.797 218.451 143.813 218.081 143.71C217.71 143.607 217.381 143.391 217.139 143.092C217.028 142.968 216.95 142.818 216.912 142.656C216.874 142.494 216.877 142.325 216.92 142.165C216.964 142.004 217.047 141.857 217.162 141.737C217.277 141.617 217.42 141.528 217.579 141.478C217.94 141.347 218.332 141.332 218.702 141.434C219.073 141.537 219.402 141.752 219.645 142.051C219.75 142.179 219.825 142.33 219.861 142.492C219.897 142.655 219.895 142.823 219.854 142.984Z" fill="#AD4D4D"/>
<path d="M228.095 172.235C228.017 172.392 227.904 172.528 227.764 172.633C227.625 172.737 227.462 172.808 227.291 172.838C226.891 172.914 226.477 172.864 226.107 172.693C225.737 172.522 225.43 172.24 225.227 171.885C225.133 171.737 225.077 171.567 225.064 171.391C225.052 171.216 225.084 171.04 225.156 170.879C225.229 170.719 225.341 170.579 225.481 170.473C225.621 170.367 225.785 170.298 225.959 170.271C226.359 170.189 226.775 170.24 227.143 170.417C227.516 170.583 227.825 170.866 228.022 171.224C228.113 171.375 228.167 171.545 228.18 171.721C228.193 171.897 228.163 172.073 228.095 172.235Z" fill="#AD4D4D"/>
<path d="M223.713 173.037C223.662 173.142 223.586 173.233 223.493 173.304C223.4 173.375 223.292 173.422 223.177 173.443C222.907 173.495 222.628 173.461 222.378 173.346C222.129 173.231 221.922 173.04 221.786 172.8C221.724 172.7 221.688 172.587 221.681 172.47C221.674 172.353 221.696 172.236 221.745 172.129C221.793 172.023 221.868 171.93 221.961 171.859C222.054 171.788 222.164 171.742 222.279 171.724C222.549 171.672 222.828 171.706 223.078 171.821C223.327 171.936 223.534 172.127 223.67 172.367C223.729 172.468 223.763 172.581 223.771 172.697C223.778 172.813 223.758 172.93 223.713 173.037Z" fill="#AD4D4D"/>
<path fill-rule="evenodd" clip-rule="evenodd" d="M133.753 201.078C138.496 203.163 137.119 208.817 137.066 209.712C136.717 215.655 133.695 224.542 127.095 229.889C121.815 234.166 115.574 236.473 112.629 234.802C106.397 231.268 109.912 222.006 111.295 218.833C115.343 209.547 127.613 198.378 133.753 201.078Z" fill="#EAC8B8" stroke="black" stroke-miterlimit="1.5" stroke-linecap="round" stroke-linejoin="round"/>
<path fill-rule="evenodd" clip-rule="evenodd" d="M126.199 228.481C126.156 227.894 126.334 234.917 127.698 237.894C128.011 238.577 128.866 239.282 128.69 239.637C128.286 240.446 123.785 240.145 123.042 239.987C122.1 239.788 121.249 237.782 120.937 236.684C119.772 232.591 120.743 232.048 124.186 229.849C124.436 229.69 126.096 228.481 126.199 228.481Z" fill="#F1DFD6" stroke="black" stroke-miterlimit="1.5" stroke-linecap="round" stroke-linejoin="round"/>
<path fill-rule="evenodd" clip-rule="evenodd" d="M122.659 233.167C122.654 233.125 122.601 234.372 122.62 236.156C122.63 237.101 122.707 237.871 122.795 238.456C122.925 239.32 123.367 239.956 123.367 239.983C123.367 240.021 122.296 239.802 122.075 238.95C121.732 237.629 121.966 235.144 121.966 233.766C121.966 233.211 122.602 233.167 122.659 233.167Z" fill="#2A2522" fill-opacity="0.48"/>
<path fill-rule="evenodd" clip-rule="evenodd" d="M128.591 198.437C121.676 196.584 115.78 200.546 111.295 207.927C103.963 219.995 104.62 228.452 102.586 231.318C99.3813 235.835 96.24 237.433 91.989 237.945C87.6568 238.467 81.3568 237.676 80.9129 239.497C80.6601 240.534 87.0372 241.911 97.5424 240.541C102.983 239.831 107.747 239.193 111.94 237.945C115.179 236.98 117.874 235.652 121.547 233.644C133.86 226.913 135.393 209.874 133.95 205.261C133.216 202.915 132.864 199.582 128.591 198.437Z" fill="#F1DFD6" stroke="black" stroke-miterlimit="1.5" stroke-linecap="round" stroke-linejoin="round"/>
<path fill-rule="evenodd" clip-rule="evenodd" d="M129.289 211.229C129.522 211.049 127.539 215.316 126.739 216.52C126.509 216.868 125.907 217.851 125.844 218.137C125.359 220.325 124.183 221.646 124.192 221.822C124.27 223.39 123.227 224.279 123.212 224.396C123.021 225.896 122.239 226.919 122.317 227.001C125.037 229.878 122.169 233.155 121.927 233.166C120.189 233.247 119.817 227.856 120.006 226.614C120.18 225.466 123.914 215.994 125.153 214.435C126.273 213.025 127.604 210.559 129.289 211.229Z" fill="#2A2522" fill-opacity="0.4"/>
<path fill-rule="evenodd" clip-rule="evenodd" d="M121.907 231.337C121.973 233.142 121.535 236.948 121.93 239.021C122.31 241.011 123.6 241.693 123.098 242.292C122.085 243.5 117.308 242.8 116.18 241.727C115.343 240.931 114.931 236.518 115.551 235.584C116.856 233.618 121.898 231.075 121.907 231.337Z" fill="#F1DFD6" stroke="black" stroke-miterlimit="1.5" stroke-linecap="round" stroke-linejoin="round"/>
<path fill-rule="evenodd" clip-rule="evenodd" d="M135.565 208.758C135.904 209.06 135.697 210.705 136.158 212.321C136.818 214.635 138.728 215.24 139.942 217.03C140.011 217.132 137.447 220.291 134.671 218.852C133.319 218.15 128.507 212.728 130.118 209.712C130.648 208.718 134.867 208.135 135.565 208.758Z" fill="#F1DFD6" stroke="black" stroke-miterlimit="1.5" stroke-linecap="round" stroke-linejoin="round"/>
<path fill-rule="evenodd" clip-rule="evenodd" d="M130.664 210.254C130.665 210.246 131.415 213.371 131.904 213.926C134.059 216.37 137.195 218.402 137.257 218.526C137.296 218.605 136.539 219.38 135.749 219.226C133.481 218.785 128.564 212.362 130.664 210.254Z" fill="#2A2522" fill-opacity="0.46"/>
<path fill-rule="evenodd" clip-rule="evenodd" d="M130.354 209.712C130.355 209.679 130.284 212.228 131.248 214.022C132.205 215.802 135.553 218.221 136.121 218.782C136.452 219.11 134.589 223.035 130.938 221.998C129.19 221.501 126.686 218.742 125.339 216.844C124.132 215.144 124.514 213.163 124.705 212.971C125.482 212.191 129.596 209.712 130.354 209.712Z" fill="#F1DFD6" stroke="black" stroke-miterlimit="1.5" stroke-linecap="round" stroke-linejoin="round"/>
<path fill-rule="evenodd" clip-rule="evenodd" d="M107.961 203.545C109.818 198.176 117.177 195.115 121.304 194.672C126.852 194.077 131.672 197.466 132.653 202.389C133.219 205.228 131.764 207.891 130.164 210.033C128.206 212.652 127.42 215.941 124.508 216.718C119.438 218.07 106.301 208.344 107.961 203.545Z" fill="#EAC8B8" stroke="black" stroke-miterlimit="1.5" stroke-linecap="round" stroke-linejoin="round"/>
<path fill-rule="evenodd" clip-rule="evenodd" d="M103.103 220.657C102.987 220.463 98.9583 229.63 104.123 234.311C107.559 237.425 112.655 238.781 117.565 237.414C122.553 236.026 124.025 228.361 120.279 226.393C120.113 226.307 107.979 228.724 103.103 220.657Z" fill="#EAC8B8" stroke="black" stroke-miterlimit="1.5" stroke-linecap="round" stroke-linejoin="round"/>
<path fill-rule="evenodd" clip-rule="evenodd" d="M104.129 216.835C103.576 216.724 102.045 219.874 103.422 221.616C103.683 221.946 105.045 225.201 110.979 226.4C118.056 227.829 120.778 226.191 120.831 226.144C122.412 224.71 121.901 223.443 121.84 223.382C121.824 223.365 118.756 226.089 111.278 222.705C106.169 220.394 104.402 216.889 104.129 216.835Z" fill="#F1DFD6" stroke="black" stroke-miterlimit="1.5" stroke-linecap="round" stroke-linejoin="round"/>
<path fill-rule="evenodd" clip-rule="evenodd" d="M105.082 212.117C103.658 213.299 103.52 216.195 104.057 217.025C105.393 219.087 106.805 221.414 111.25 223.31C119.52 226.837 121.885 223.07 121.967 222.958C123.04 221.496 122.167 219.957 121.967 220.137C119.884 222.013 117.446 221.413 113.444 219.908C109.028 218.246 105.139 212.07 105.082 212.117Z" fill="#F1DFD6" stroke="black" stroke-miterlimit="1.5" stroke-linecap="round" stroke-linejoin="round"/>
<path fill-rule="evenodd" clip-rule="evenodd" d="M106.797 207.635C104.026 209.094 104.814 212.393 105.817 214.072C107.449 216.802 109.718 218.875 113.754 220.471C118.522 222.356 120.763 221.568 122.305 220.566C122.98 220.128 123.252 218.996 123.059 218.526C122.268 216.598 116.007 216.888 112.641 214.322C109.356 211.817 107.408 207.314 106.797 207.635Z" fill="#F1DFD6" stroke="black" stroke-miterlimit="1.5" stroke-linecap="round" stroke-linejoin="round"/>
<path fill-rule="evenodd" clip-rule="evenodd" d="M107.778 204.336C107.737 204.242 106.691 205.577 106.806 207.455C106.957 209.909 108.627 213.291 112.413 215.626C121.644 221.319 124.241 217.814 124.308 216.79C124.309 216.775 122.811 216.596 121.163 215.966C119.371 215.282 117.34 214.099 115.236 212.852C108.881 209.086 108.201 205.323 107.778 204.336Z" fill="#F1DFD6" stroke="black" stroke-miterlimit="1.5" stroke-linecap="round" stroke-linejoin="round"/>
<path fill-rule="evenodd" clip-rule="evenodd" d="M111.132 199.537C111.12 200.276 109.347 203.821 111.94 206.924C114.279 209.724 117.826 212.152 121.579 213.793C123.743 214.739 124.902 214.849 126.835 215.021C126.861 215.023 125.249 216.553 124.308 216.534C122.72 216.502 121.024 215.676 118.725 214.618C116.555 213.619 114.603 211.972 112.569 210.776C110.763 209.713 107.905 205.387 108.015 204.332C108.246 202.116 111.14 199.102 111.132 199.537Z" fill="#2A2522" fill-opacity="0.41"/>
<path fill-rule="evenodd" clip-rule="evenodd" d="M107.184 205.917C107.219 205.796 107.218 208.841 108.621 210.999C110.118 213.303 112.773 215.344 114.834 216.534C118.79 218.818 122.463 218.407 122.383 218.48C121.576 219.211 120.913 219.614 118.495 219.32C113.706 218.737 105.083 213.23 106.602 208.014C106.63 207.916 106.871 207.026 107.184 205.917Z" fill="#2A2522" fill-opacity="0.6"/>
<path fill-rule="evenodd" clip-rule="evenodd" d="M124.973 196.702C125.618 195.928 123.73 195.547 121.78 195.642C118.418 195.805 115.837 198.063 116.279 198.506C118.196 200.431 123.37 198.628 124.973 196.702Z" fill="white" fill-opacity="0.52"/>
<path fill-rule="evenodd" clip-rule="evenodd" d="M103.162 218.46C103.012 219.284 103.091 220.582 103.054 221.358C102.989 222.729 103.803 223.978 104.51 224.656C107.546 227.566 112.668 228.769 117.424 227.89C119.227 227.556 119.758 226.329 120.006 226.422C120.059 226.441 112.315 227.878 105.655 223.128C104.096 222.015 103.528 220.136 103.162 218.46Z" fill="#2A2522" fill-opacity="0.5"/>
<path fill-rule="evenodd" clip-rule="evenodd" d="M105.152 209.936C105.253 210.949 105.923 213.005 106.525 213.988C108.504 217.219 109.885 218.037 112.801 219.443C118.629 222.252 122.466 220.355 122.313 220.662C122.15 220.99 119.853 223.525 112.591 220.99C109.962 220.072 105.154 216.883 104.512 213.26C104.469 213.019 105.121 211.842 105.152 209.936Z" fill="#2A2522" fill-opacity="0.61"/>
<path fill-rule="evenodd" clip-rule="evenodd" d="M104.136 214.435C103.935 216.238 106.327 219.112 108.012 220.654C109.526 222.04 113.023 223.471 115.973 224.048C118.255 224.494 120.297 224.241 120.297 224.241C120.297 224.241 117.546 225.625 113.681 224.961C110.245 224.371 105.99 222.487 104.14 218.694C103.63 217.648 103.846 215.293 104.136 214.435Z" fill="#2A2522" fill-opacity="0.62"/>
<path fill-rule="evenodd" clip-rule="evenodd" d="M119.81 229.532C119.485 230.05 120.172 230.6 120.467 231.359C120.566 231.614 119.987 233.249 120.666 233.28C121.701 233.327 121.84 230.57 121.345 229.77C121.078 229.336 120.136 229.011 119.81 229.532Z" fill="white" fill-opacity="0.64"/>
<path fill-rule="evenodd" clip-rule="evenodd" d="M135.343 191.739C134.813 189.81 135.291 187.486 136.613 185.979C137.825 184.597 139.312 183.81 139.36 183.927C139.48 184.221 138.827 184.773 139.395 186.073C139.758 186.905 140.555 187.682 140.795 188.336C141.709 190.826 140.501 192.283 140.04 192.76C139.2 193.629 135.54 192.455 135.343 191.739Z" fill="#F1DFD6" stroke="black" stroke-miterlimit="1.5" stroke-linecap="round" stroke-linejoin="round"/>
<path fill-rule="evenodd" clip-rule="evenodd" d="M125.613 198.925C126.065 196.61 126.907 194.694 130.545 192.812C133.479 191.294 135.963 191.275 138.921 191.86C145.054 193.072 144.332 199.407 150.195 200.867C153.639 201.724 156.76 200.845 156.782 200.867C156.947 201.033 157.312 202.768 156.967 203.153C150.418 210.458 141.302 209.973 140.035 210.757C135.996 213.257 130.521 211.494 128.197 209.386C126.009 207.401 124.795 203.116 125.613 198.925Z" fill="#F1DFD6" stroke="black" stroke-miterlimit="1.5" stroke-linecap="round" stroke-linejoin="round"/>
<path d="M135.858 204.052C137.512 205.686 139.939 204.272 140.035 203.59" stroke="black" stroke-miterlimit="1.5" stroke-linecap="round" stroke-linejoin="round"/>
<path fill-rule="evenodd" clip-rule="evenodd" d="M145.267 205.076C142.498 204.723 141.103 200.514 138.734 199.818C137.121 199.345 133.734 199.997 131.64 201.466C130.151 202.511 128.193 204.47 127.207 207.742C127.198 207.77 126.527 206.767 126.071 205.145C125.404 202.765 125.084 199.086 127.022 195.657C127.758 194.354 130.313 193.043 132.074 192.336C133.883 191.61 135.566 191.695 137.176 191.83C139.417 192.017 141.409 192.447 143.271 194.673C145.255 197.046 145.973 198.943 147.98 200.165C151.667 202.411 156.904 201.145 156.88 201.169C156.823 201.226 157.412 202.822 156.752 203.132C154.207 204.324 149.195 205.576 145.267 205.076Z" fill="#EAC8B8"/>
<path fill-rule="evenodd" clip-rule="evenodd" d="M156.818 200.837C156.427 200.83 156.069 200.989 155.631 201.034C154.949 201.104 153.377 201.174 153.309 201.305C153.147 201.62 152.957 203.056 153.175 203.348C153.424 203.682 155.244 203.671 155.806 203.596C156.451 203.511 157.011 203.183 157.183 202.407C157.297 201.893 157.011 201.302 156.818 200.837Z" fill="black"/>
<path fill-rule="evenodd" clip-rule="evenodd" d="M133.029 193.082C133.645 186.602 126.531 182.623 126.567 182.719C127.138 184.23 126.987 185.283 126.488 186.394C125.963 187.564 124.84 189.2 125.357 191.504C125.73 193.168 126.433 194.267 127.937 195.273C130.101 196.721 132.854 194.927 133.029 193.082Z" fill="#F1DFD6" stroke="black" stroke-miterlimit="1.5" stroke-linecap="round" stroke-linejoin="round"/>
<path fill-rule="evenodd" clip-rule="evenodd" d="M129.691 193.725C129.801 193.738 130.201 193.509 130.308 192.851C130.423 192.146 131.109 192.285 131.144 192.19C131.516 191.187 131.046 190.148 130.671 189.259C129.936 187.517 128.057 186.493 128.057 186.493C128.057 186.493 127.933 188.29 127.529 189.259C126.125 192.627 128.975 193.642 129.691 193.725Z" fill="#63534B"/>
<path d="M131.057 192.096C131.188 191.177 131.246 190.684 130.671 189.259C129.963 187.506 128.057 186.493 128.057 186.493C128.057 186.493 127.983 188.313 127.529 189.259C126.203 192.027 128.283 193.725 129.691 193.725" stroke="black" stroke-miterlimit="1.5" stroke-linecap="round" stroke-linejoin="round"/>
<path fill-rule="evenodd" clip-rule="evenodd" d="M151.629 202.16C151.656 201.957 151.916 201.823 152.207 201.863C152.499 201.903 152.714 202.1 152.686 202.304C152.659 202.508 152.4 202.641 152.108 202.601C151.816 202.562 151.602 202.364 151.629 202.16Z" fill="#63534B"/>
<path fill-rule="evenodd" clip-rule="evenodd" d="M150.254 202.972C150.276 202.768 150.533 202.629 150.825 202.662C151.118 202.695 151.337 202.887 151.314 203.092C151.291 203.296 151.035 203.435 150.742 203.402C150.449 203.369 150.231 203.176 150.254 202.972Z" fill="#63534B"/>
<path fill-rule="evenodd" clip-rule="evenodd" d="M149.115 201.687C149.153 201.485 149.418 201.364 149.707 201.418C149.997 201.472 150.202 201.679 150.165 201.881C150.127 202.084 149.862 202.204 149.573 202.151C149.283 202.097 149.078 201.89 149.115 201.687Z" fill="#63534B"/>
<path fill-rule="evenodd" clip-rule="evenodd" d="M146.964 200.444C147.061 200.263 147.35 200.23 147.61 200.37C147.869 200.51 148.001 200.77 147.903 200.952C147.806 201.133 147.517 201.166 147.258 201.026C146.999 200.886 146.867 200.625 146.964 200.444Z" fill="#63534B"/>
<path fill-rule="evenodd" clip-rule="evenodd" d="M144.977 202.381C145.081 202.204 145.372 202.182 145.625 202.332C145.879 202.482 146 202.747 145.896 202.924C145.793 203.102 145.502 203.124 145.248 202.974C144.995 202.824 144.873 202.558 144.977 202.381Z" fill="#63534B"/>
<path fill-rule="evenodd" clip-rule="evenodd" d="M143.732 197.435C143.888 197.302 144.169 197.376 144.36 197.601C144.551 197.826 144.579 198.117 144.423 198.25C144.267 198.384 143.985 198.309 143.795 198.084C143.604 197.859 143.576 197.568 143.732 197.435Z" fill="#63534B"/>
<path fill-rule="evenodd" clip-rule="evenodd" d="M144.045 200.676C144.156 200.503 144.447 200.493 144.694 200.653C144.942 200.813 145.053 201.083 144.942 201.256C144.831 201.429 144.54 201.439 144.292 201.279C144.045 201.119 143.934 200.849 144.045 200.676Z" fill="#63534B"/>
<path fill-rule="evenodd" clip-rule="evenodd" d="M140.831 197.09C140.956 196.927 141.247 196.942 141.48 197.122C141.713 197.303 141.801 197.581 141.675 197.744C141.55 197.907 141.26 197.893 141.026 197.712C140.793 197.532 140.706 197.253 140.831 197.09Z" fill="#63534B"/>
<path fill-rule="evenodd" clip-rule="evenodd" d="M139.77 194.806C139.85 194.617 140.134 194.556 140.406 194.671C140.677 194.786 140.832 195.033 140.753 195.222C140.673 195.412 140.388 195.472 140.117 195.358C139.846 195.243 139.69 194.996 139.77 194.806Z" fill="#63534B"/>
<path fill-rule="evenodd" clip-rule="evenodd" d="M136.243 193.657C136.277 193.454 136.541 193.329 136.831 193.379C137.121 193.428 137.329 193.633 137.295 193.836C137.261 194.038 136.997 194.163 136.707 194.113C136.417 194.064 136.209 193.859 136.243 193.657Z" fill="#63534B"/>
<path fill-rule="evenodd" clip-rule="evenodd" d="M132.854 195.828C132.841 195.623 133.069 195.441 133.363 195.422C133.656 195.404 133.906 195.555 133.919 195.76C133.932 195.966 133.704 196.147 133.41 196.166C133.116 196.185 132.867 196.034 132.854 195.828Z" fill="#63534B"/>
<path fill-rule="evenodd" clip-rule="evenodd" d="M134.417 198.9C134.383 198.697 134.591 198.492 134.881 198.443C135.171 198.393 135.435 198.518 135.469 198.72C135.503 198.923 135.296 199.128 135.006 199.177C134.715 199.227 134.452 199.103 134.417 198.9Z" fill="#63534B"/>
<path fill-rule="evenodd" clip-rule="evenodd" d="M131.236 200.343C131.122 200.172 131.229 199.9 131.474 199.736C131.718 199.572 132.01 199.578 132.123 199.749C132.237 199.921 132.13 200.193 131.885 200.356C131.64 200.52 131.349 200.514 131.236 200.343Z" fill="#63534B"/>
<path fill-rule="evenodd" clip-rule="evenodd" d="M130.225 198.296C130.125 198.116 130.252 197.854 130.51 197.71C130.767 197.566 131.056 197.595 131.156 197.774C131.256 197.954 131.128 198.217 130.871 198.361C130.614 198.504 130.324 198.475 130.225 198.296Z" fill="#63534B"/>
<path fill-rule="evenodd" clip-rule="evenodd" d="M127.075 199.608C126.876 199.557 126.774 199.283 126.847 198.997C126.92 198.711 127.14 198.52 127.338 198.57C127.537 198.621 127.639 198.895 127.566 199.181C127.494 199.468 127.273 199.659 127.075 199.608Z" fill="#63534B"/>
<path fill-rule="evenodd" clip-rule="evenodd" d="M136.491 197.717C136.501 197.512 136.747 197.356 137.041 197.37C137.335 197.384 137.566 197.561 137.557 197.767C137.547 197.972 137.301 198.128 137.007 198.114C136.713 198.1 136.482 197.922 136.491 197.717Z" fill="#63534B"/>
<path fill-rule="evenodd" clip-rule="evenodd" d="M148.35 203.978C148.382 203.775 148.643 203.647 148.934 203.692C149.225 203.737 149.436 203.938 149.405 204.141C149.373 204.345 149.112 204.473 148.821 204.428C148.53 204.383 148.319 204.181 148.35 203.978Z" fill="#63534B"/>
<path fill-rule="evenodd" clip-rule="evenodd" d="M146.966 202.264C147.044 201.91 147.501 201.711 147.987 201.818C148.473 201.926 148.805 202.3 148.727 202.653C148.649 203.007 148.192 203.207 147.706 203.099C147.22 202.992 146.889 202.617 146.966 202.264Z" fill="#63534B"/>
<path fill-rule="evenodd" clip-rule="evenodd" d="M145.038 198.942C145.302 198.696 145.792 198.794 146.129 199.16C146.467 199.527 146.527 200.024 146.262 200.27C145.998 200.516 145.508 200.418 145.17 200.051C144.832 199.685 144.773 199.188 145.038 198.942Z" fill="#63534B"/>
<path fill-rule="evenodd" clip-rule="evenodd" d="M141.953 195.379C142.238 195.158 142.717 195.3 143.021 195.696C143.324 196.091 143.339 196.592 143.053 196.813C142.768 197.033 142.289 196.892 141.985 196.496C141.682 196.101 141.667 195.6 141.953 195.379Z" fill="#63534B"/>
<path fill-rule="evenodd" clip-rule="evenodd" d="M138.342 196.557C138.485 196.225 138.972 196.116 139.429 196.315C139.885 196.513 140.14 196.944 139.996 197.276C139.853 197.609 139.366 197.717 138.909 197.519C138.453 197.32 138.199 196.889 138.342 196.557Z" fill="#63534B"/>
<path fill-rule="evenodd" clip-rule="evenodd" d="M138.012 193.206C138.161 192.876 138.65 192.775 139.103 192.982C139.556 193.187 139.803 193.622 139.654 193.952C139.506 194.282 139.017 194.382 138.564 194.176C138.111 193.97 137.863 193.535 138.012 193.206Z" fill="#63534B"/>
<path fill-rule="evenodd" clip-rule="evenodd" d="M134.863 195.447C134.891 195.086 135.317 194.825 135.813 194.865C136.309 194.905 136.689 195.23 136.66 195.591C136.631 195.952 136.205 196.212 135.71 196.173C135.214 196.133 134.834 195.808 134.863 195.447Z" fill="#63534B"/>
<path fill-rule="evenodd" clip-rule="evenodd" d="M131.906 198.332C131.807 197.984 132.115 197.59 132.593 197.453C133.072 197.316 133.54 197.487 133.639 197.835C133.738 198.183 133.43 198.577 132.952 198.714C132.474 198.851 132.005 198.68 131.906 198.332Z" fill="#63534B"/>
<path fill-rule="evenodd" clip-rule="evenodd" d="M128.738 201.351C128.428 201.166 128.383 200.667 128.637 200.238C128.891 199.808 129.349 199.61 129.659 199.795C129.969 199.98 130.015 200.479 129.76 200.908C129.506 201.337 129.048 201.536 128.738 201.351Z" fill="#63534B"/>
<path fill-rule="evenodd" clip-rule="evenodd" d="M127.339 204.678C126.992 204.581 126.818 204.111 126.952 203.63C127.085 203.149 127.476 202.837 127.823 202.934C128.17 203.032 128.344 203.501 128.211 203.982C128.077 204.463 127.687 204.775 127.339 204.678Z" fill="#63534B"/>
<path fill-rule="evenodd" clip-rule="evenodd" d="M128.339 197.857C128.138 197.556 128.311 197.086 128.724 196.808C129.137 196.53 129.636 196.548 129.837 196.849C130.038 197.15 129.865 197.619 129.452 197.898C129.039 198.176 128.54 198.157 128.339 197.857Z" fill="#63534B"/>
<path fill-rule="evenodd" clip-rule="evenodd" d="M141.7 199.014C141.908 198.718 142.407 198.711 142.814 198.999C143.22 199.287 143.382 199.761 143.174 200.057C142.966 200.353 142.467 200.359 142.06 200.071C141.654 199.783 141.493 199.31 141.7 199.014Z" fill="#63534B"/>
<path fill-rule="evenodd" clip-rule="evenodd" d="M133.67 192.792C133.703 192.432 134.132 192.176 134.627 192.221C135.123 192.267 135.498 192.596 135.465 192.957C135.433 193.317 135.004 193.573 134.508 193.528C134.013 193.482 133.637 193.153 133.67 192.792Z" fill="#63534B"/>
</svg>
